<?xml version="1.0" standalone="no"?>
<!DOCTYPE svg PUBLIC "-//W3C//DTD SVG 20010904//EN"
 "http://www.w3.org/TR/2001/REC-SVG-20010904/DTD/svg10.dtd">
<svg version="1.0" xmlns="http://www.w3.org/2000/svg"
 width="1152.000000pt" height="1434.000000pt" viewBox="0 0 1152.000000 1434.000000"
 preserveAspectRatio="xMidYMid meet">

<g transform="translate(0.000000,1434.000000) scale(0.100000,-0.100000)"
fill="#000000" stroke="none">
<path d="M5393 12423 c9 -2 25 -2 35 0 9 3 1 5 -18 5 -19 0 -27 -2 -17 -5z"/>
<path d="M5538 12423 c12 -2 30 -2 40 0 9 3 -1 5 -23 4 -22 0 -30 -2 -17 -4z"/>
<path d="M6033 12423 c9 -2 23 -2 30 0 6 3 -1 5 -18 5 -16 0 -22 -2 -12 -5z"/>
<path d="M6088 12413 c7 -3 16 -2 19 1 4 3 -2 6 -13 5 -11 0 -14 -3 -6 -6z"/>
<path d="M6240 12410 c0 -6 7 -10 15 -10 8 0 15 2 15 4 0 2 -7 6 -15 10 -8 3
-15 1 -15 -4z"/>
<path d="M6620 12350 c-13 -8 -12 -10 3 -10 9 0 17 5 17 10 0 12 -1 12 -20 0z"/>
<path d="M4545 12310 c-3 -5 3 -10 14 -10 12 0 21 5 21 10 0 6 -6 10 -14 10
-8 0 -18 -4 -21 -10z"/>
<path d="M6847 12313 c-9 -8 43 -34 55 -27 5 3 1 12 -9 20 -20 15 -36 18 -46
7z"/>
<path d="M5685 12299 c164 -15 228 -15 232 -1 4 9 -32 12 -159 10 -155 -1
-159 -2 -73 -9z"/>
<path d="M5151 12290 c-60 -9 -84 -24 -52 -33 14 -3 21 0 21 9 0 15 54 20 85
8 13 -5 14 -8 3 -15 -8 -6 3 -9 30 -9 28 0 41 4 37 11 -5 7 7 8 39 4 37 -6 46
-4 46 8 0 26 -92 34 -209 17z"/>
<path d="M6195 12283 c17 -2 35 -10 40 -17 6 -8 41 -16 85 -19 41 -3 66 -4 55
-1 -11 3 -36 11 -56 19 -20 7 -63 16 -95 18 -32 2 -45 2 -29 0z"/>
<path d="M6955 12270 c-3 -5 -1 -10 4 -10 6 0 11 5 11 10 0 6 -2 10 -4 10 -3
0 -8 -4 -11 -10z"/>
<path d="M5468 12263 c12 -2 30 -2 40 0 9 3 -1 5 -23 4 -22 0 -30 -2 -17 -4z"/>
<path d="M6433 12263 c-47 -6 -41 -23 7 -23 29 0 40 4 40 15 0 8 -3 14 -7 13
-5 0 -23 -3 -40 -5z"/>
<path d="M4843 12247 c-31 -8 -43 -16 -43 -29 0 -12 7 -18 21 -18 11 0 17 5
14 10 -4 6 5 10 19 10 14 0 26 5 26 10 0 6 18 10 40 10 22 0 40 5 40 10 0 12
-61 11 -117 -3z"/>
<path d="M6505 12251 c3 -6 -2 -14 -11 -19 -10 -5 -14 -14 -9 -21 5 -9 28 -11
81 -6 64 6 74 5 74 -9 0 -13 11 -15 60 -15 62 1 71 7 45 29 -10 8 -30 10 -60
6 -35 -6 -45 -4 -45 6 0 9 -13 14 -37 15 -21 1 -39 6 -41 12 -2 6 -17 11 -33
11 -17 0 -28 -4 -24 -9z"/>
<path d="M4695 12220 c-68 -14 -95 -28 -89 -45 8 -19 60 -17 57 3 -3 11 1 13
22 12 9 -1 65 30 65 35 0 6 -1 6 -55 -5z"/>
<path d="M4210 12210 c-12 -8 -11 -10 8 -10 12 0 22 5 22 10 0 13 -11 13 -30
0z"/>
<path d="M7160 12210 c0 -5 15 -10 33 -10 24 0 28 3 17 10 -20 13 -50 13 -50
0z"/>
<path d="M4778 12183 c7 -3 16 -2 19 1 4 3 -2 6 -13 5 -11 0 -14 -3 -6 -6z"/>
<path d="M4080 12165 c0 -8 7 -15 15 -15 8 0 15 7 15 15 0 8 -7 15 -15 15 -8
0 -15 -7 -15 -15z"/>
<path d="M5523 12173 c-46 -2 -83 -8 -83 -13 0 -5 -43 -9 -97 -8 -109 1 -247
-7 -262 -16 -13 -8 -130 -27 -168 -27 -18 0 -33 -5 -33 -10 0 -7 -15 -8 -40
-4 -32 5 -39 4 -35 -7 5 -12 -4 -13 -47 -8 -29 4 -62 4 -73 -1 -18 -7 -18 -8
-2 -8 27 -1 10 -21 -19 -21 -15 0 -24 -6 -24 -15 0 -11 -11 -15 -40 -15 -22 0
-40 5 -40 10 0 6 -18 10 -40 10 -33 0 -40 -3 -40 -20 0 -16 -7 -20 -32 -21
-18 -1 -44 -2 -58 -3 -14 -1 -24 -6 -23 -13 2 -8 -7 -13 -22 -13 -16 0 -25 -6
-25 -15 0 -11 -11 -15 -40 -15 -30 0 -40 -4 -40 -16 0 -11 5 -14 18 -9 9 4 42
14 72 22 30 7 64 18 75 23 19 8 48 14 250 55 44 9 87 20 95 25 13 6 103 19
180 25 37 3 107 18 124 27 10 5 82 12 159 15 78 2 144 8 147 13 3 5 56 9 119
9 62 1 118 4 123 7 15 9 467 -14 640 -32 81 -9 151 -13 156 -10 6 3 12 1 14
-5 2 -6 44 -16 93 -21 50 -5 101 -12 115 -16 34 -10 72 -3 67 11 -2 7 -13 13
-25 15 -12 2 -22 7 -22 12 0 5 -36 7 -80 5 -45 -2 -80 0 -80 6 0 5 -18 9 -39
9 -26 0 -41 5 -45 15 -5 13 -21 14 -101 9 -65 -5 -95 -4 -95 4 0 6 6 12 13 15
6 2 -91 7 -218 11 -126 3 -266 8 -310 9 -44 2 -117 2 -162 0z"/>
<path d="M7360 12160 c0 -5 5 -10 10 -10 6 0 10 5 10 10 0 6 -4 10 -10 10 -5
0 -10 -4 -10 -10z"/>
<path d="M6880 12148 c0 -4 16 -5 35 -4 24 3 38 -1 44 -12 10 -18 45 -9 38 11
-4 13 -117 18 -117 5z"/>
<path d="M3986 12141 c-4 -7 -5 -15 -2 -18 9 -9 19 4 14 18 -4 11 -6 11 -12 0z"/>
<path d="M4018 12143 c7 -3 16 -2 19 1 4 3 -2 6 -13 5 -11 0 -14 -3 -6 -6z"/>
<path d="M4560 12139 c0 -5 5 -7 10 -4 6 3 10 8 10 11 0 2 -4 4 -10 4 -5 0
-10 -5 -10 -11z"/>
<path d="M7040 12125 c0 -8 -7 -15 -15 -15 -8 0 -15 -4 -15 -9 0 -5 7 -11 15
-15 8 -3 15 -1 15 4 0 6 18 10 40 10 22 0 40 -4 40 -10 0 -5 7 -10 15 -10 8 0
15 5 15 10 0 6 -6 10 -13 10 -7 0 -30 9 -52 20 -47 24 -45 24 -45 5z"/>
<path d="M4288 12107 c-42 -12 -46 -18 -23 -37 19 -16 84 -5 92 16 3 7 15 14
27 15 19 1 19 2 -4 9 -32 10 -47 10 -92 -3z"/>
<path d="M3840 12092 c0 -5 -10 -13 -22 -17 -20 -6 -21 -8 -5 -12 27 -7 69 6
64 20 -5 15 -37 22 -37 9z"/>
<path d="M7528 12093 c7 -3 16 -2 19 1 4 3 -2 6 -13 5 -11 0 -14 -3 -6 -6z"/>
<path d="M7560 12080 c0 -13 28 -25 38 -16 3 4 0 11 -8 16 -20 13 -30 12 -30
0z"/>
<path d="M6728 12073 c7 -3 16 -2 19 1 4 3 -2 6 -13 5 -11 0 -14 -3 -6 -6z"/>
<path d="M7185 12060 c3 -5 8 -10 11 -10 2 0 4 5 4 10 0 6 -5 10 -11 10 -5 0
-7 -4 -4 -10z"/>
<path d="M4127 12040 c-16 -19 -16 -20 6 -16 12 1 23 10 25 19 5 23 -10 21
-31 -3z"/>
<path d="M6720 12041 c0 -4 28 -14 63 -21 34 -7 70 -17 80 -22 12 -6 17 -5 17
7 0 8 -5 15 -11 15 -5 0 -7 5 -4 10 4 6 -6 10 -22 10 -22 0 -25 -2 -13 -10 12
-8 11 -10 -7 -10 -14 0 -23 6 -23 15 0 11 -11 15 -40 15 -22 0 -40 -4 -40 -9z"/>
<path d="M7338 12024 c12 -3 22 -10 22 -15 0 -5 18 -9 40 -9 33 0 40 -3 40
-20 0 -21 8 -24 34 -14 13 5 14 9 5 20 -6 8 -17 14 -24 14 -8 0 -15 4 -17 9
-1 5 -30 12 -63 14 -33 3 -50 3 -37 1z"/>
<path d="M3636 12005 c-17 -13 -18 -15 -3 -15 9 0 17 4 17 10 0 5 7 7 15 4 8
-4 15 -1 15 5 0 15 -21 13 -44 -4z"/>
<path d="M3974 12005 c-4 -8 -16 -15 -29 -15 -12 0 -28 -7 -35 -15 -7 -8 -27
-19 -44 -24 -31 -9 -31 -9 12 -10 31 -1 42 3 42 14 0 13 21 21 34 13 6 -4 46
34 46 44 0 14 -20 9 -26 -7z"/>
<path d="M6930 12016 c0 -2 7 -6 15 -10 8 -3 15 -1 15 4 0 6 -7 10 -15 10 -8
0 -15 -2 -15 -4z"/>
<path d="M7025 11970 c-16 -6 -13 -8 13 -7 19 0 38 -6 42 -13 11 -17 94 -41
138 -40 20 0 31 -4 30 -11 -4 -15 29 -32 120 -60 39 -12 72 -26 72 -30 0 -3
10 -9 23 -12 24 -5 144 -50 190 -70 15 -6 27 -15 27 -19 0 -5 10 -8 23 -8 13
0 27 -4 33 -9 15 -16 104 -61 119 -61 7 0 27 -11 43 -25 17 -14 36 -25 43 -25
8 0 25 -9 39 -20 14 -11 32 -20 41 -20 9 0 26 -8 38 -17 11 -10 32 -27 45 -37
23 -19 53 -36 131 -75 22 -12 50 -31 62 -44 27 -30 90 -63 100 -54 4 5 1 12
-7 17 -18 11 -21 50 -3 57 7 3 13 13 13 23 0 25 8 29 48 23 19 -3 32 -11 32
-20 0 -18 32 -13 38 5 2 7 -5 16 -17 19 -12 3 -21 12 -21 20 0 11 -8 12 -37 7
-35 -6 -73 -35 -73 -56 0 -15 -42 -8 -86 14 -24 12 -44 27 -44 34 0 8 -14 10
-44 7 -38 -5 -44 -3 -49 16 -3 11 -1 24 4 27 5 3 9 13 9 23 0 15 -11 19 -56
24 -30 3 -61 10 -67 15 -7 5 -25 14 -42 20 -17 6 -22 11 -12 11 9 1 17 6 17
12 0 8 -14 10 -42 6 -24 -2 -37 -3 -30 0 21 8 13 25 -9 18 -14 -5 -27 0 -40
14 -11 12 -24 21 -29 21 -5 0 -26 16 -46 36 -22 22 -39 33 -43 26 -10 -17 -81
9 -81 30 0 20 -8 22 -44 8 -16 -6 -27 -6 -31 0 -4 6 -23 10 -43 10 -33 0 -38
3 -40 26 -3 37 -9 43 -44 42 -18 -1 -34 4 -36 10 -2 6 -10 8 -17 6 -8 -3 -20
-2 -27 2 -7 5 -20 9 -28 10 -23 1 -90 33 -90 43 0 12 -100 30 -132 24 -24 -4
-28 -2 -28 16 0 18 -6 21 -37 20 -21 0 -47 -4 -58 -9z"/>
<path d="M7520 11970 c0 -5 -8 -10 -18 -10 -30 0 -34 -12 -10 -28 16 -12 23
-12 26 -4 6 18 82 15 82 -3 0 -17 26 -20 36 -4 9 15 -14 29 -47 29 -15 0 -32
7 -39 15 -14 17 -30 20 -30 5z"/>
<path d="M4160 11922 c0 -17 -44 -31 -135 -44 -24 -4 -35 -48 -11 -48 8 0 17
4 20 9 3 4 33 14 66 21 33 7 60 16 60 20 0 4 14 13 30 20 36 15 38 25 8 34
-34 9 -38 8 -38 -12z"/>
<path d="M3490 11921 c0 -5 7 -11 15 -15 9 -3 15 0 15 9 0 8 -7 15 -15 15 -8
0 -15 -4 -15 -9z"/>
<path d="M3785 11920 c-16 -4 -45 -15 -62 -24 -18 -10 -38 -14 -45 -10 -8 5
-9 2 -5 -9 3 -9 3 -16 -1 -16 -31 5 -73 -3 -70 -13 10 -29 110 -12 158 28 8 7
18 13 23 13 29 2 57 15 57 27 0 15 -10 16 -55 4z"/>
<path d="M7900 11921 c0 -10 30 -24 37 -17 3 3 2 9 -2 15 -8 13 -35 15 -35 2z"/>
<path d="M7650 11902 c0 -15 41 -42 63 -41 16 1 17 3 5 6 -9 2 -15 10 -12 17
3 8 -4 16 -18 20 -31 8 -38 8 -38 -2z"/>
<path d="M7989 11876 c16 -19 55 -22 49 -3 -3 6 -17 14 -33 15 -25 3 -27 2
-16 -12z"/>
<path d="M3330 11856 c0 -2 7 -6 15 -10 8 -3 15 -1 15 4 0 6 -7 10 -15 10 -8
0 -15 -2 -15 -4z"/>
<path d="M3928 11853 c6 -2 18 -2 25 0 6 3 1 5 -13 5 -14 0 -19 -2 -12 -5z"/>
<path d="M3542 11808 c-6 -6 -17 -13 -24 -15 -7 -1 -26 -6 -42 -9 -32 -8 -70
-40 -56 -49 4 -3 29 -8 54 -11 42 -6 46 -5 46 15 0 13 6 21 18 21 26 1 55 27
49 45 -8 18 -28 20 -45 3z"/>
<path d="M3861 11800 c-19 -16 -20 -21 -8 -26 18 -6 101 29 91 39 -14 13 -59
6 -83 -13z"/>
<path d="M3238 11803 c-27 -7 -21 -23 7 -23 14 0 25 4 25 9 0 13 -12 18 -32
14z"/>
<path d="M8160 11801 c0 -5 5 -13 10 -16 6 -3 10 -2 10 4 0 5 -4 13 -10 16 -5
3 -10 2 -10 -4z"/>
<path d="M7880 11792 c0 -4 8 -12 18 -18 13 -8 20 -8 29 1 9 10 9 15 -3 19
-22 8 -44 7 -44 -2z"/>
<path d="M3628 11783 c6 -2 18 -2 25 0 6 3 1 5 -13 5 -14 0 -19 -2 -12 -5z"/>
<path d="M3756 11766 c5 -12 0 -16 -16 -16 -13 0 -29 -8 -37 -17 -10 -13 -16
-15 -19 -5 -8 19 -32 14 -44 -8 -6 -11 -7 -20 -3 -20 13 0 -32 -29 -46 -30 -8
0 -28 -12 -43 -27 -27 -26 -28 -26 -28 -5 0 12 -3 22 -7 22 -18 -1 -75 -59
-69 -69 7 -10 -18 -15 -76 -14 -19 0 -23 -23 -10 -45 9 -13 42 -6 42 9 0 5 9
9 20 9 11 0 28 8 38 18 25 25 98 62 122 62 11 0 20 4 20 8 0 5 18 16 40 26 22
10 40 22 40 27 0 6 8 8 19 4 12 -3 21 0 25 10 3 8 14 15 25 15 11 0 33 11 48
24 26 23 26 25 5 19 -12 -3 -29 0 -37 7 -13 11 -14 10 -9 -4z"/>
<path d="M8210 11755 c7 -9 15 -13 17 -11 7 7 -7 26 -19 26 -6 0 -6 -6 2 -15z"/>
<path d="M8240 11755 c0 -3 9 -14 20 -25 16 -16 25 -18 38 -11 15 9 15 10 1
11 -9 0 -22 7 -29 15 -12 14 -30 20 -30 10z"/>
<path d="M8000 11720 c0 -28 3 -30 34 -30 48 0 52 14 12 39 -43 27 -46 27 -46
-9z"/>
<path d="M3108 11719 c-10 -5 -18 -15 -18 -21 0 -14 48 -1 67 17 13 13 11 15
-9 15 -13 0 -31 -5 -40 -11z"/>
<path d="M3342 11708 c-21 -21 -13 -28 36 -28 59 0 70 9 36 27 -32 16 -56 17
-72 1z"/>
<path d="M4367 11680 l-27 -21 0 -248 c0 -136 -3 -251 -7 -254 -5 -6 -58 61
-89 114 -5 9 -18 28 -28 41 -9 13 -29 42 -44 64 -106 162 -99 154 -141 154
-60 0 -72 -25 -51 -111 8 -37 19 -71 23 -75 4 -4 7 -20 7 -35 0 -15 5 -31 10
-34 6 -3 10 -21 10 -40 0 -19 5 -37 10 -40 6 -3 10 -16 10 -27 0 -23 17 -81
31 -110 5 -10 9 -27 9 -37 0 -11 4 -30 9 -43 5 -13 14 -43 21 -68 16 -59 57
-150 69 -150 5 0 16 -2 24 -6 23 -9 48 39 37 72 -5 16 -14 49 -21 74 -6 25
-15 54 -19 65 -23 64 -34 98 -51 169 -11 43 -17 81 -13 85 4 3 9 0 12 -7 2 -8
23 -35 46 -61 22 -25 64 -81 91 -124 37 -56 56 -77 72 -77 54 0 53 -4 53 225
0 118 4 216 8 219 4 2 14 -16 22 -42 7 -26 21 -65 30 -87 10 -22 23 -56 30
-75 15 -43 30 -80 41 -102 5 -10 9 -24 9 -32 0 -7 7 -19 15 -26 8 -7 15 -20
15 -30 0 -9 12 -33 28 -53 21 -28 34 -36 60 -37 25 0 35 6 44 25 9 19 9 28 0
37 -7 7 -12 22 -12 35 0 12 -5 35 -11 50 -6 15 -16 39 -22 53 -18 46 -24 61
-87 235 -77 212 -108 293 -125 325 -18 33 -62 38 -98 10z"/>
<path d="M3246 11651 c-10 -11 -28 -22 -42 -25 -23 -6 -35 -36 -14 -36 6 0 10
7 10 15 0 11 11 15 38 15 26 0 41 6 49 19 10 16 9 20 -3 25 -21 8 -19 9 -38
-13z"/>
<path d="M8156 11656 c3 -9 11 -16 16 -16 13 0 5 23 -10 28 -7 2 -10 -2 -6
-12z"/>
<path d="M8370 11661 c0 -11 26 -22 34 -14 3 3 3 10 0 14 -7 12 -34 11 -34 0z"/>
<path d="M3015 11650 c-3 -6 1 -7 9 -4 18 7 21 14 7 14 -6 0 -13 -4 -16 -10z"/>
<path d="M6747 11618 c-9 -18 -18 -41 -21 -50 -4 -13 -18 -18 -57 -20 -37 -2
-55 -8 -63 -21 -13 -20 5 -36 39 -37 41 -1 51 -15 37 -57 -21 -61 -27 -75 -61
-146 -49 -100 -87 -149 -114 -145 -19 3 -22 9 -21 45 1 23 6 54 11 70 27 75
33 104 33 160 0 55 -3 64 -26 82 -49 38 -95 21 -188 -68 l-58 -56 5 72 c6 81
-4 103 -50 103 -35 0 -52 -26 -53 -78 0 -23 -4 -50 -10 -60 -5 -9 -16 -33 -25
-52 -26 -60 -41 -80 -89 -126 -47 -44 -84 -61 -111 -50 -22 8 -55 67 -55 97 0
28 19 39 68 39 22 0 69 27 99 56 7 6 22 30 33 53 25 47 20 94 -14 123 -28 23
-137 25 -175 2 -49 -29 -120 -151 -121 -209 0 -21 -24 -96 -41 -127 -6 -12
-19 -18 -32 -16 -21 3 -22 7 -25 158 -2 152 -3 155 -29 182 -15 16 -34 28 -43
28 -9 0 -21 5 -27 11 -8 8 -13 8 -17 0 -4 -6 -15 -11 -25 -11 -19 0 -62 -41
-81 -79 -14 -27 -27 -18 -32 23 -5 42 -46 70 -92 62 -42 -8 -91 -52 -111 -99
l-14 -32 -1 46 c0 71 -52 106 -84 57 -11 -17 -14 -45 -12 -98 4 -91 -10 -143
-40 -157 -30 -14 -34 -9 -34 49 0 98 -70 168 -167 168 -38 0 -54 -6 -79 -28
-61 -54 -68 -74 -66 -190 1 -131 23 -198 84 -253 43 -39 98 -44 168 -15 20 8
60 100 60 136 0 20 10 39 33 59 17 17 35 31 40 31 4 0 7 -26 7 -58 0 -34 7
-73 16 -91 14 -28 20 -32 53 -29 l36 3 2 70 c3 111 24 226 49 277 31 62 41 66
59 22 11 -27 15 -74 15 -185 l0 -149 39 0 c57 0 66 17 68 129 3 101 25 182 63
231 31 39 40 11 40 -118 0 -149 12 -195 57 -222 19 -11 43 -20 54 -20 24 0 68
27 92 57 10 13 23 23 28 23 6 0 32 -18 58 -40 43 -36 52 -40 104 -40 61 0 110
25 154 78 l22 27 1 -47 c0 -52 18 -78 55 -78 29 0 55 43 55 89 0 16 5 33 10
36 6 3 10 15 10 26 0 10 5 19 10 19 6 0 10 6 10 13 0 13 118 137 132 137 11 0
10 -77 -1 -84 -22 -14 -38 -190 -20 -223 16 -29 62 -53 104 -53 31 0 125 61
125 81 0 5 7 9 15 9 11 0 15 -12 15 -47 1 -85 73 -138 151 -113 21 7 44 19 50
27 20 23 49 16 49 -12 0 -54 60 -105 125 -105 52 0 114 40 157 101 30 43 47
59 64 59 13 0 39 9 59 20 l36 20 11 -28 c11 -27 29 -147 28 -191 0 -32 -27
-61 -56 -61 -26 0 -46 46 -38 89 4 18 0 32 -11 41 -15 13 -20 11 -41 -15 -28
-36 -30 -77 -6 -125 19 -39 83 -80 125 -80 34 0 98 39 115 72 14 25 12 153 -3
276 -5 35 -3 57 5 67 29 35 69 4 70 -53 0 -42 23 -52 56 -22 27 27 30 49 10
88 -22 41 -87 92 -120 92 -18 0 -53 -19 -96 -52 -50 -38 -126 -78 -134 -71 -3
4 -6 43 -6 87 -1 69 -4 85 -23 106 -29 34 -68 50 -122 50 -45 0 -125 -35 -125
-55 0 -6 -13 -24 -30 -40 -16 -16 -30 -35 -30 -42 0 -15 -19 -50 -37 -71 -7
-7 -13 -17 -13 -21 0 -4 -16 -24 -35 -44 -41 -43 -72 -48 -81 -13 -8 32 0 123
14 161 6 17 16 55 22 85 7 30 17 70 23 88 11 32 12 32 73 32 35 0 65 4 69 9 9
16 -44 61 -72 61 -22 0 -24 3 -18 23 26 83 13 117 -44 117 -33 0 -40 -4 -54
-32z m-737 -142 c-1 -38 -63 -96 -102 -96 -40 0 -2 110 42 120 38 9 60 0 60
-24z m-1093 -81 c13 -22 23 -52 23 -67 0 -15 5 -30 10 -33 30 -18 -10 -41 -43
-24 -31 16 -87 81 -87 101 0 9 5 29 12 43 18 40 57 30 85 -20z m2227 -111 c9
-24 7 -127 -4 -144 -8 -12 -13 -11 -33 8 -31 30 -41 85 -21 123 16 32 48 39
58 13z m-2281 -58 c18 -13 47 -27 65 -31 27 -5 32 -11 32 -35 0 -31 -48 -90
-73 -90 -22 0 -39 25 -48 73 -26 123 -26 121 24 83z m2166 -72 c7 -19 26 -47
42 -61 16 -15 29 -30 29 -35 0 -17 -54 -80 -74 -88 -12 -4 -31 -3 -43 3 -19 8
-23 18 -23 56 0 26 9 71 20 101 11 30 20 56 20 57 0 2 4 3 8 3 4 0 14 -16 21
-36z"/>
<path d="M8416 11631 c-3 -4 6 -13 20 -20 35 -16 40 -14 19 9 -20 22 -31 25
-39 11z"/>
<path d="M2988 11623 c7 -3 16 -2 19 1 4 3 -2 6 -13 5 -11 0 -14 -3 -6 -6z"/>
<path d="M8088 11623 c7 -3 16 -2 19 1 4 3 -2 6 -13 5 -11 0 -14 -3 -6 -6z"/>
<path d="M2913 11585 c-18 -18 -33 -39 -33 -46 0 -7 18 6 40 29 22 22 40 43
40 46 0 13 -17 3 -47 -29z"/>
<path d="M8496 11575 c9 -14 21 -25 27 -25 5 0 16 -8 23 -17 12 -17 13 -16 14
4 0 14 -12 29 -34 42 -44 27 -50 26 -30 -4z"/>
<path d="M3120 11576 c0 -9 -7 -16 -15 -16 -8 0 -15 -4 -15 -10 0 -5 -10 -10
-23 -10 -19 0 -55 -36 -45 -45 2 -1 24 -6 51 -9 l47 -7 0 38 c0 22 5 44 11 50
8 8 8 13 0 17 -6 4 -11 0 -11 -8z"/>
<path d="M2792 11494 c-28 -23 -48 -45 -43 -48 5 -3 14 1 21 9 7 8 18 15 25
15 21 0 57 35 54 52 -3 12 -16 6 -57 -28z"/>
<path d="M8575 11510 c3 -5 13 -10 21 -10 8 0 12 5 9 10 -3 6 -13 10 -21 10
-8 0 -12 -4 -9 -10z"/>
<path d="M3020 11470 c-13 -8 -12 -10 3 -10 9 0 17 5 17 10 0 12 -1 12 -20 0z"/>
<path d="M3200 11455 c0 -21 -5 -25 -30 -25 -16 0 -30 -4 -30 -10 0 -5 -4 -10
-10 -10 -5 0 -10 7 -10 16 0 24 -35 12 -38 -14 -2 -12 1 -22 7 -22 6 0 11 -4
11 -10 0 -5 -5 -10 -11 -10 -7 0 -18 -8 -25 -17 -10 -14 -16 -15 -22 -6 -6 10
-12 10 -27 -1 -16 -11 -17 -17 -7 -29 10 -12 8 -14 -14 -14 -34 0 -72 -22 -80
-45 -3 -10 -12 -18 -20 -18 -8 0 -14 -10 -14 -25 0 -22 -3 -24 -29 -19 -27 6
-28 4 -24 -20 5 -26 4 -26 -34 -20 -36 5 -41 4 -46 -17 -4 -13 -7 -34 -7 -46
0 -12 -6 -24 -12 -26 -10 -4 -10 -6 0 -6 18 -1 72 28 72 38 0 5 -6 12 -12 15
-7 3 -3 3 8 1 15 -4 26 2 38 20 9 14 21 25 26 25 11 0 54 41 56 53 1 4 2 12 3
17 0 6 12 10 25 10 14 0 31 8 38 18 7 10 31 29 52 42 22 13 54 36 70 50 17 15
46 33 64 41 17 8 32 17 32 21 0 5 6 8 13 8 8 0 24 11 36 24 19 21 20 24 6 30
-36 13 -55 7 -55 -19z"/>
<path d="M8648 11475 c-8 -9 59 -75 76 -75 22 0 20 19 -1 27 -10 3 -30 17 -44
30 -14 13 -28 21 -31 18z"/>
<path d="M2946 11451 c-4 -7 -5 -15 -2 -18 9 -9 19 4 14 18 -4 11 -6 11 -12 0z"/>
<path d="M2850 11389 c-14 -15 -30 -28 -37 -28 -17 -1 -27 -21 -16 -32 6 -6
16 -2 28 11 10 11 23 20 29 20 6 0 20 8 31 16 19 16 19 16 -5 9 -22 -7 -23 -6
-11 9 24 29 7 25 -19 -5z"/>
<path d="M2670 11395 c-16 -19 -1 -19 24 0 16 12 17 15 4 15 -8 0 -21 -7 -28
-15z"/>
<path d="M8520 11391 c0 -12 46 -41 54 -34 3 4 6 15 6 25 0 13 -8 18 -30 18
-16 0 -30 -4 -30 -9z"/>
<path d="M2627 11365 c-3 -7 1 -16 8 -19 20 -7 26 6 10 21 -10 10 -14 9 -18
-2z"/>
<path d="M8780 11351 c0 -6 5 -13 10 -16 6 -3 10 1 10 9 0 9 -4 16 -10 16 -5
0 -10 -4 -10 -9z"/>
<path d="M8594 11343 c11 -11 46 -14 46 -3 0 6 -12 10 -27 10 -14 0 -23 -3
-19 -7z"/>
<path d="M2564 11315 c-4 -8 -11 -15 -16 -15 -14 0 -47 -43 -41 -53 3 -5 18 5
34 22 15 17 32 31 37 31 6 0 12 7 16 15 3 9 0 15 -10 15 -8 0 -17 -7 -20 -15z"/>
<path d="M2765 11309 c-4 -5 -15 -9 -26 -9 -14 0 -19 -7 -19 -25 0 -22 4 -25
40 -25 29 0 40 4 40 15 0 8 5 15 11 15 10 0 44 29 37 31 -21 7 -79 6 -83 -2z"/>
<path d="M8414 11307 c-8 -9 -4 -17 13 -31 24 -18 24 -18 38 0 8 11 15 25 15
32 0 15 -51 15 -66 -1z"/>
<path d="M8852 11298 c3 -7 13 -15 22 -16 12 -3 17 1 14 10 -3 7 -13 15 -22
16 -12 3 -17 -1 -14 -10z"/>
<path d="M8474 11259 c-4 -7 1 -16 10 -21 10 -5 32 -23 50 -39 19 -16 36 -29
40 -29 7 0 -13 38 -31 58 -7 7 -13 20 -13 28 0 17 -46 19 -56 3z"/>
<path d="M8720 11259 c0 -5 5 -7 10 -4 6 3 10 8 10 11 0 2 -4 4 -10 4 -5 0
-10 -5 -10 -11z"/>
<path d="M2667 11242 c-12 -13 -13 -19 -5 -19 7 0 23 -3 36 -7 18 -6 22 -4 22
12 0 11 -7 23 -16 26 -21 8 -19 9 -37 -12z"/>
<path d="M8917 11244 c-10 -11 3 -24 23 -24 10 0 21 -8 23 -17 4 -16 5 -16 6
-1 2 28 -36 58 -52 42z"/>
<path d="M2630 11201 c0 -11 -12 -29 -26 -40 l-27 -21 32 0 c30 0 31 2 31 40
0 22 -2 40 -5 40 -3 0 -5 -9 -5 -19z"/>
<path d="M2721 11184 c0 -11 3 -14 6 -6 3 7 2 16 -1 19 -3 4 -6 -2 -5 -13z"/>
<path d="M8985 11170 c3 -5 13 -10 21 -10 8 0 12 -4 9 -10 -3 -5 0 -10 7 -10
7 0 47 -36 87 -80 74 -79 91 -92 91 -67 0 16 -42 57 -58 57 -7 0 -17 11 -22
25 -5 14 -14 25 -19 25 -5 0 -31 18 -56 40 -43 37 -74 53 -60 30z"/>
<path d="M8594 11154 c3 -8 6 -18 6 -20 0 -2 5 -4 10 -4 16 0 11 27 -6 34 -12
5 -15 2 -10 -10z"/>
<path d="M2546 11122 c-4 -13 -5 -26 -2 -29 10 -11 18 4 14 29 l-4 23 -8 -23z"/>
<path d="M8633 11115 c4 -9 7 -19 7 -21 0 -2 7 -4 15 -4 8 0 22 -11 30 -24 21
-31 43 -39 60 -22 12 12 11 16 -4 30 -10 9 -27 16 -39 16 -11 0 -24 4 -27 10
-3 5 -16 15 -27 21 -18 10 -20 9 -15 -6z"/>
<path d="M2292 11068 c-18 -18 -15 -28 8 -28 13 0 20 7 20 20 0 23 -10 26 -28
8z"/>
<path d="M2480 11060 c0 -10 -4 -22 -10 -25 -5 -3 -10 -15 -10 -26 0 -14 -7
-19 -29 -19 -39 0 -78 -38 -78 -76 0 -28 2 -30 23 -20 13 6 18 13 12 17 -6 4
-7 12 -4 18 4 6 11 9 17 6 13 -9 79 61 79 85 0 14 7 20 23 20 18 0 64 19 47
20 -3 0 -20 4 -38 9 -28 8 -32 7 -32 -9z"/>
<path d="M8941 11061 c-7 -5 1 -16 20 -30 17 -13 33 -20 36 -17 10 9 -44 54
-56 47z"/>
<path d="M2640 11025 c0 -8 -7 -15 -15 -15 -8 0 -20 -9 -27 -20 -7 -11 -19
-20 -26 -20 -9 0 -11 -7 -7 -21 5 -15 4 -19 -4 -14 -19 11 -58 -21 -56 -47 1
-13 4 -22 6 -21 2 1 12 5 22 9 21 8 107 90 107 102 0 4 10 12 22 17 34 15 36
45 4 45 -16 0 -26 -6 -26 -15z"/>
<path d="M8773 11028 c-28 -14 -29 -24 -4 -38 26 -14 26 -14 26 20 0 17 0 30
0 29 0 0 -10 -5 -22 -11z"/>
<path d="M2240 11020 c0 -5 4 -10 9 -10 6 0 13 5 16 10 3 6 -1 10 -9 10 -9 0
-16 -4 -16 -10z"/>
<path d="M3087 10952 c-10 -10 -17 -22 -17 -26 0 -18 37 -87 92 -168 59 -89
70 -118 43 -118 -8 0 -30 -16 -50 -35 -32 -33 -35 -40 -35 -95 0 -33 4 -68 9
-78 32 -65 48 -94 82 -147 32 -52 37 -65 30 -95 -8 -39 -16 -42 -47 -20 -19
14 -92 106 -123 154 -15 24 -70 63 -92 66 -53 8 -70 0 -89 -42 -22 -48 -25
-110 -9 -156 22 -65 7 -69 -49 -14 -29 29 -57 52 -62 52 -5 0 -20 -11 -34 -25
-30 -30 -26 -47 24 -102 57 -62 108 -138 119 -179 6 -22 11 -71 11 -111 0 -60
-4 -76 -22 -98 -29 -32 -88 -37 -118 -10 -25 23 -25 45 0 90 23 41 27 123 8
158 -33 57 -49 67 -110 67 -33 0 -68 -5 -79 -10 -53 -29 -65 -135 -25 -222 24
-53 132 -169 169 -181 22 -8 25 -95 2 -103 -17 -7 -125 55 -175 101 -95 85
-160 86 -160 2 0 -29 9 -42 54 -83 143 -128 203 -166 257 -162 34 2 47 10 71
39 26 33 30 45 31 110 l2 73 49 17 c37 13 57 28 83 63 30 42 33 52 33 116 l0
71 29 -17 c35 -21 55 -14 76 26 15 29 15 32 -5 59 -11 16 -20 33 -20 39 0 5
-7 15 -15 22 -14 12 -31 44 -50 95 -9 23 -23 99 -32 163 -6 49 7 55 34 13 81
-129 145 -199 200 -220 28 -12 35 -11 62 8 41 30 71 82 71 125 0 28 4 36 18
36 10 0 23 -5 29 -11 8 -8 19 -6 41 5 42 22 71 62 78 107 l7 39 27 -17 c24
-14 33 -14 58 -4 16 7 34 22 39 34 25 54 31 75 23 87 -5 8 -6 18 -4 22 8 12
52 9 56 -4 5 -14 42 -5 84 21 56 34 95 150 68 202 -20 41 -21 117 -1 156 18
35 13 93 -8 93 -18 0 -45 -34 -45 -58 0 -11 -4 -24 -10 -27 -5 -3 -10 -2 -10
4 0 15 -57 68 -92 85 -58 29 -112 13 -167 -50 -28 -31 -31 -42 -31 -97 0 -68
12 -108 65 -220 35 -76 41 -101 29 -131 -16 -42 -54 4 -169 202 -6 9 -32 51
-59 92 -27 41 -66 102 -87 135 -65 104 -66 105 -108 105 -24 0 -44 -7 -54 -18z
m573 -97 c35 -18 74 -71 66 -91 -10 -27 -36 -27 -77 2 -49 34 -78 82 -57 95
19 12 35 11 68 -6z m-55 -135 c14 -23 76 -42 114 -36 36 5 39 4 45 -20 8 -29
-2 -93 -17 -111 -29 -38 -88 0 -126 82 -13 28 -27 58 -32 67 -5 10 -9 20 -9
23 0 9 19 5 25 -5z m-316 -157 c29 -28 97 -121 122 -168 22 -41 22 -44 6 -69
-25 -38 -49 -32 -93 21 -55 65 -62 76 -89 137 -21 48 -22 56 -9 75 18 26 39
27 63 4z m-602 -642 c27 -40 29 -68 7 -99 l-16 -23 -17 23 c-28 36 -51 89 -51
115 0 38 48 28 77 -16z"/>
<path d="M8830 10950 c0 -5 9 -14 20 -20 19 -10 20 -10 8 9 -13 22 -28 28 -28
11z"/>
<path d="M2159 10938 c0 -7 -2 -23 -3 -35 -2 -18 0 -20 11 -11 11 9 12 13 1
19 -8 6 -9 9 -2 9 7 0 14 7 18 15 3 9 0 15 -9 15 -8 0 -15 -6 -16 -12z"/>
<path d="M6248 10943 c7 -3 16 -2 19 1 4 3 -2 6 -13 5 -11 0 -14 -3 -6 -6z"/>
<path d="M6408 10933 c7 -3 16 -2 19 1 4 3 -2 6 -13 5 -11 0 -14 -3 -6 -6z"/>
<path d="M9257 10923 c-12 -11 -8 -23 8 -23 8 0 15 7 15 15 0 16 -12 20 -23 8z"/>
<path d="M2282 10874 c-12 -8 -22 -22 -22 -30 0 -8 -8 -14 -17 -14 -10 0 -24
-12 -30 -27 -19 -39 -16 -47 10 -30 12 8 34 13 48 12 23 -3 25 0 21 26 -3 20
1 31 12 35 17 7 22 29 8 38 -5 3 -18 -2 -30 -10z"/>
<path d="M8915 10870 c3 -5 15 -15 26 -20 16 -9 19 -7 19 10 0 15 -7 20 -26
20 -14 0 -22 -4 -19 -10z"/>
<path d="M9297 10874 c-6 -6 57 -74 68 -74 13 0 2 20 -25 49 -33 34 -34 34
-43 25z"/>
<path d="M2442 10845 c-12 -14 -26 -25 -32 -25 -14 0 -12 -26 3 -38 17 -15 61
26 65 61 4 34 -8 35 -36 2z"/>
<path d="M7890 10842 c-87 -42 -123 -75 -158 -146 -26 -53 -32 -76 -32 -130 0
-65 1 -67 45 -111 44 -44 46 -45 110 -45 36 0 74 5 85 12 22 14 39 3 22 -14
-16 -16 -15 -50 4 -98 39 -98 150 -115 255 -38 34 24 55 32 92 33 26 1 47 -2
47 -6 0 -4 -27 -31 -60 -60 -33 -28 -71 -67 -85 -85 l-25 -33 22 -20 c30 -29
70 -26 131 7 29 16 61 34 72 39 30 17 140 53 159 53 23 0 20 -18 -6 -40 -13
-11 -54 -45 -91 -76 -68 -56 -82 -77 -92 -136 -8 -42 19 -84 77 -121 32 -20
50 -21 94 -5 21 7 35 20 39 36 8 31 -1 40 -45 44 -29 2 -36 7 -38 28 -2 21 9
36 63 80 124 103 165 143 165 161 0 11 -16 37 -36 59 -34 37 -40 40 -90 40
-29 0 -65 -5 -79 -12 -38 -17 -42 -2 -9 35 57 61 58 64 40 92 -21 32 -42 32
-118 -5 -58 -28 -98 -37 -110 -24 -3 3 7 28 23 57 68 123 11 227 -124 227 -62
0 -105 -19 -184 -82 -40 -32 -78 -58 -85 -58 -7 0 -22 -7 -32 -15 -11 -8 -37
-15 -57 -15 -73 0 -98 75 -54 161 20 37 112 129 130 129 8 0 15 5 15 11 0 6
12 9 28 7 26 -3 27 -5 25 -60 l-2 -58 32 0 c27 0 36 6 51 35 16 30 17 38 6 67
-20 49 -30 59 -88 85 -65 28 -64 28 -132 -5z m414 -288 c24 -9 19 -57 -11
-103 -39 -60 -53 -54 -53 24 0 67 0 67 47 84 1 1 8 -2 17 -5z m-124 -99 c0
-24 5 -56 12 -70 10 -22 8 -28 -10 -48 -12 -13 -38 -29 -57 -36 -43 -15 -65
-3 -65 38 0 43 91 178 111 165 5 -3 9 -25 9 -49z"/>
<path d="M2080 10837 c0 -9 -5 -17 -11 -19 -7 -2 -4 -10 7 -18 16 -14 17 -13
11 3 -4 11 -1 17 9 17 9 0 14 5 12 12 -6 18 -28 22 -28 5z"/>
<path d="M2320 10826 c0 -9 5 -16 10 -16 6 0 10 4 10 9 0 6 -4 13 -10 16 -5 3
-10 -1 -10 -9z"/>
<path d="M9200 10812 c0 -18 29 -52 43 -52 14 0 7 31 -8 36 -8 4 -15 12 -15
20 0 8 -4 14 -10 14 -5 0 -10 -8 -10 -18z"/>
<path d="M9000 10787 c0 -8 11 -20 25 -27 13 -7 22 -17 19 -22 -3 -4 2 -8 11
-8 9 0 13 4 10 10 -3 6 1 7 9 4 20 -8 21 14 2 39 -15 20 -36 23 -36 5 0 -9 -3
-9 -12 0 -16 16 -28 15 -28 -1z"/>
<path d="M2348 10755 c-16 -13 -28 -31 -28 -40 0 -9 -7 -18 -15 -21 -8 -4 -15
-12 -15 -20 0 -7 -8 -18 -19 -23 -10 -6 -21 -21 -25 -34 -3 -13 -16 -29 -28
-35 -13 -6 -17 -11 -10 -11 19 -1 14 -18 -8 -24 -13 -3 -20 -14 -20 -28 l0
-22 26 24 c14 13 32 39 39 57 8 17 20 32 28 32 8 0 23 12 33 27 23 32 76 83
86 83 5 0 8 14 8 30 0 36 -15 38 -52 5z"/>
<path d="M9396 10751 c-4 -5 2 -16 13 -23 10 -7 21 -22 24 -33 4 -19 5 -19 6
1 1 24 -34 70 -43 55z"/>
<path d="M1981 10715 c-11 -19 -16 -35 -10 -35 13 0 59 46 59 60 0 23 -29 8
-49 -25z"/>
<path d="M9245 10739 c-11 -17 0 -20 21 -4 17 13 17 14 2 15 -9 0 -20 -5 -23
-11z"/>
<path d="M9080 10712 c0 -5 9 -17 20 -27 19 -18 20 -17 20 2 0 12 -7 24 -16
27 -21 8 -24 8 -24 -2z"/>
<path d="M9308 10675 c2 -14 11 -25 18 -25 17 0 17 10 0 33 -18 24 -24 21 -18
-8z"/>
<path d="M2105 10650 c4 -6 11 -8 16 -5 14 9 11 15 -7 15 -8 0 -12 -5 -9 -10z"/>
<path d="M9157 10646 c-16 -13 -15 -16 23 -43 22 -17 36 -34 32 -38 -4 -5 1
-5 11 -2 10 4 24 7 30 8 7 0 3 4 -8 9 -11 5 -14 9 -7 9 20 1 14 29 -10 42 -16
9 -23 9 -26 0 -7 -21 -35 -13 -29 9 3 11 4 20 4 20 -1 0 -10 -7 -20 -14z"/>
<path d="M9480 10651 c0 -15 48 -67 55 -59 3 3 1 15 -6 26 -14 23 -49 46 -49
33z"/>
<path d="M1920 10619 c0 -11 4 -18 10 -14 5 3 7 12 3 20 -7 21 -13 19 -13 -6z"/>
<path d="M9360 10620 c0 -19 3 -21 12 -12 9 9 9 15 0 24 -9 9 -12 7 -12 -12z"/>
<path d="M2080 10584 c0 -8 5 -12 10 -9 6 3 10 10 10 16 0 5 -4 9 -10 9 -5 0
-10 -7 -10 -16z"/>
<path d="M1857 10567 c-42 -52 -46 -67 -16 -67 18 0 19 2 9 15 -10 12 -10 15
0 15 15 0 60 47 52 54 -11 11 -27 5 -45 -17z"/>
<path d="M9536 10582 c-2 -4 11 -26 29 -47 25 -29 34 -35 35 -22 0 19 -38 77
-51 77 -4 0 -10 -4 -13 -8z"/>
<path d="M2030 10570 c0 -5 4 -10 9 -10 6 0 13 5 16 10 3 6 -1 10 -9 10 -9 0
-16 -4 -16 -10z"/>
<path d="M9360 10555 c0 -8 9 -15 20 -15 11 0 20 2 20 5 0 2 -9 9 -20 15 -16
9 -20 8 -20 -5z"/>
<path d="M9235 10530 c3 -5 8 -10 11 -10 2 0 4 5 4 10 0 6 -5 10 -11 10 -5 0
-7 -4 -4 -10z"/>
<path d="M1986 10515 c-3 -8 -1 -15 4 -15 6 0 10 7 10 15 0 8 -2 15 -4 15 -2
0 -6 -7 -10 -15z"/>
<path d="M2110 10472 c-16 -20 -29 -41 -27 -46 5 -16 -35 -56 -55 -56 -20 0
-24 -15 -6 -26 6 -4 16 0 23 9 7 10 16 17 21 17 5 1 25 21 44 47 65 85 62 80
46 86 -10 4 -26 -7 -46 -31z"/>
<path d="M9418 10503 c7 -3 16 -2 19 1 4 3 -2 6 -13 5 -11 0 -14 -3 -6 -6z"/>
<path d="M9260 10495 c0 -14 29 -51 63 -83 20 -19 37 -40 37 -47 0 -7 11 -16
25 -19 18 -5 25 -13 25 -30 0 -31 21 -48 37 -31 8 9 9 16 3 20 -6 3 -10 15
-10 26 0 10 -6 19 -14 19 -8 0 -16 7 -20 15 -3 8 -14 15 -25 15 -13 0 -21 9
-26 30 -4 19 -20 39 -41 54 -19 12 -31 26 -27 29 3 4 -1 7 -10 7 -9 0 -17 -2
-17 -5z"/>
<path d="M1966 10471 c-3 -5 1 -15 10 -22 13 -10 17 -10 25 2 5 8 9 17 9 22 0
10 -38 9 -44 -2z"/>
<path d="M9340 10464 c0 -8 5 -12 10 -9 6 3 10 10 10 16 0 5 -4 9 -10 9 -5 0
-10 -7 -10 -16z"/>
<path d="M9625 10470 c-7 -12 2 -30 16 -30 12 0 12 27 0 35 -5 3 -12 1 -16 -5z"/>
<path d="M9512 10440 c7 -11 16 -20 20 -20 5 0 3 9 -4 20 -7 11 -16 20 -20 20
-5 0 -3 -9 4 -20z"/>
<path d="M1741 10400 c-28 -39 -23 -58 7 -30 12 12 20 26 16 32 -4 6 0 14 7
19 8 5 9 9 3 9 -5 0 -20 -14 -33 -30z"/>
<path d="M1920 10410 c0 -5 7 -7 15 -4 8 4 15 8 15 10 0 2 -7 4 -15 4 -8 0
-15 -4 -15 -10z"/>
<path d="M9664 10405 c-7 -18 3 -35 22 -35 8 0 14 -8 14 -18 0 -21 29 -52 48
-52 7 0 12 -11 12 -25 0 -15 6 -25 14 -25 12 0 12 5 -1 33 -9 17 -22 35 -29
39 -7 5 -22 28 -34 53 -22 46 -37 56 -46 30z"/>
<path d="M9520 10384 c0 -17 22 -14 28 4 2 7 -3 12 -12 12 -9 0 -16 -7 -16
-16z"/>
<path d="M5475 10368 c-44 -5 -98 -13 -120 -19 -22 -5 -83 -16 -135 -24 -109
-17 -353 -94 -575 -183 -59 -23 -238 -112 -245 -121 -9 -11 -89 -61 -99 -61
-5 0 -14 -7 -22 -16 -7 -8 -29 -24 -48 -35 -31 -17 -62 -38 -196 -134 -16 -11
-51 -40 -80 -65 -114 -99 -127 -110 -136 -110 -5 0 -9 -4 -9 -9 0 -4 -29 -39
-65 -76 -36 -37 -65 -69 -65 -72 0 -3 -8 -12 -19 -21 -21 -19 -113 -122 -149
-168 -55 -68 -144 -190 -150 -204 -8 -20 -74 -121 -89 -138 -6 -6 -15 -22 -19
-35 -3 -12 -16 -35 -28 -52 -28 -40 -70 -116 -107 -195 -17 -36 -42 -88 -55
-116 -13 -28 -24 -56 -24 -63 0 -10 -14 -45 -61 -149 -10 -23 -19 -52 -19 -63
0 -11 -7 -30 -15 -42 -21 -33 -108 -378 -126 -502 -5 -38 -13 -95 -18 -125 -4
-30 -9 -59 -11 -65 -11 -28 11 -60 122 -179 37 -40 50 -63 59 -106 22 -108
100 -365 118 -390 18 -24 22 -25 145 -27 117 -2 127 0 137 19 6 11 8 30 5 43
-3 13 -2 68 4 122 5 54 12 142 15 196 3 53 9 105 14 115 5 9 16 60 26 112 22
129 45 231 56 252 5 10 9 31 9 47 0 17 5 33 10 36 6 3 10 16 10 27 0 12 4 35
9 52 102 333 125 400 134 404 4 2 17 25 28 50 46 104 75 160 108 212 130 204
178 273 241 346 19 23 45 54 57 70 29 39 195 201 263 258 69 57 194 146 240
172 19 10 37 22 40 25 11 15 213 119 229 119 6 0 11 5 11 10 0 6 9 10 20 10
12 0 31 6 43 14 12 8 60 26 107 41 47 15 101 34 120 41 35 13 85 25 126 29 12
2 30 8 41 13 11 6 29 8 41 5 12 -3 46 2 74 12 45 14 96 17 337 17 202 0 285
-3 290 -11 4 -6 36 -16 72 -21 136 -19 259 -48 301 -71 10 -5 27 -9 37 -9 11
0 23 -4 26 -10 3 -5 13 -10 21 -10 14 0 41 -11 182 -77 62 -28 111 -56 260
-148 58 -36 84 -54 122 -85 69 -56 420 -404 420 -417 0 -6 4 -13 8 -15 10 -4
95 -116 110 -145 7 -12 18 -28 24 -35 17 -18 30 -41 101 -178 32 -63 63 -119
68 -124 5 -6 9 -19 9 -30 0 -11 6 -27 13 -35 7 -9 21 -41 32 -71 10 -30 24
-64 32 -75 7 -11 13 -32 13 -47 0 -15 4 -29 9 -32 5 -3 11 -20 14 -38 4 -29
40 -169 84 -328 8 -30 17 -70 20 -88 3 -18 9 -35 14 -38 5 -3 9 -20 9 -39 0
-19 5 -46 10 -60 6 -15 12 -53 15 -84 5 -70 14 -120 25 -146 9 -20 15 -59 26
-160 3 -27 10 -54 15 -60 5 -5 9 -38 9 -75 0 -36 4 -71 9 -79 8 -13 166 -40
176 -29 3 2 16 45 29 94 13 49 36 130 50 179 15 50 31 106 36 125 18 71 38
101 128 200 50 55 94 111 98 124 3 13 1 53 -6 88 -6 34 -13 79 -16 98 -3 19
-9 44 -13 55 -21 51 -51 212 -51 276 0 17 -16 81 -35 142 -20 62 -45 141 -56
177 -12 36 -27 72 -34 80 -7 8 -15 26 -18 40 -10 48 -62 185 -74 198 -7 7 -13
19 -13 26 0 7 -13 33 -30 59 -16 26 -30 54 -30 61 0 8 -7 16 -15 20 -8 3 -24
27 -37 53 -12 26 -39 70 -60 97 -21 27 -38 53 -38 58 0 9 -76 125 -94 144 -6
6 -22 27 -36 47 -14 20 -31 37 -37 37 -7 0 -13 5 -13 10 0 10 -60 80 -151 177
-21 23 -39 45 -39 48 0 3 -25 29 -56 58 -31 28 -74 69 -96 90 -22 20 -42 37
-45 37 -3 0 -22 15 -43 33 -68 58 -114 93 -187 140 -40 26 -76 53 -80 61 -4 8
-25 21 -46 30 -21 9 -56 29 -77 46 -21 16 -43 30 -49 30 -17 0 -85 34 -93 46
-4 7 -20 15 -35 19 -29 6 -118 45 -163 70 -65 35 -364 131 -435 140 -33 4 -88
13 -123 21 -144 33 -267 44 -497 42 -126 0 -266 -5 -310 -10z"/>
<path d="M9548 10343 c-42 -7 -33 -23 12 -23 33 0 40 -3 40 -20 0 -11 5 -20
10 -20 6 0 10 8 10 18 -1 20 -23 53 -36 51 -5 -1 -21 -4 -36 -6z"/>
<path d="M1706 10324 c-11 -27 -7 -37 9 -24 16 14 20 40 6 40 -5 0 -12 -7 -15
-16z"/>
<path d="M1870 10310 c0 -16 5 -30 10 -30 6 0 10 14 10 30 0 17 -4 30 -10 30
-5 0 -10 -13 -10 -30z"/>
<path d="M1962 10300 c-6 -11 -12 -26 -12 -34 0 -8 -7 -19 -16 -24 -11 -6 -14
-20 -12 -48 l3 -39 17 30 c10 17 20 38 24 48 3 9 13 17 21 17 8 0 12 4 9 9 -3
5 1 14 9 21 8 7 15 19 15 26 0 21 -44 17 -58 -6z"/>
<path d="M1666 10293 c-4 -13 -12 -23 -17 -23 -5 0 -9 -9 -9 -20 0 -13 7 -20
19 -20 24 0 32 20 22 57 -7 27 -8 27 -15 6z"/>
<path d="M1821 10287 c-8 -10 -7 -19 4 -33 14 -18 14 -17 15 14 0 36 -2 38
-19 19z"/>
<path d="M9571 10226 c-9 -11 -8 -15 5 -20 23 -9 24 -8 24 14 0 23 -13 26 -29
6z"/>
<path d="M9790 10220 c0 -19 11 -26 23 -14 8 8 -3 34 -14 34 -5 0 -9 -9 -9
-20z"/>
<path d="M9516 10185 c-3 -8 -3 -22 0 -30 5 -12 9 -12 30 1 20 14 21 18 9 30
-18 18 -31 18 -39 -1z"/>
<path d="M1740 10165 c-24 -26 -22 -42 5 -32 8 4 15 15 15 26 0 11 6 22 13 24
6 3 7 6 1 6 -6 1 -21 -10 -34 -24z"/>
<path d="M9819 10163 c8 -29 41 -45 41 -20 0 13 -30 47 -42 47 -4 0 -3 -12 1
-27z"/>
<path d="M1587 10159 c-8 -11 -13 -28 -10 -37 3 -11 -7 -23 -27 -35 -17 -10
-28 -22 -25 -27 8 -12 32 -2 39 16 3 8 12 14 19 14 8 0 18 19 24 45 11 48 3
58 -20 24z"/>
<path d="M9680 10144 c0 -8 5 -12 10 -9 6 4 8 11 5 16 -9 14 -15 11 -15 -7z"/>
<path d="M9570 10130 c-19 -15 -22 -22 -13 -31 14 -14 46 13 41 36 -2 11 -7
11 -28 -5z"/>
<path d="M9864 10106 c-4 -11 0 -24 10 -34 15 -15 16 -15 16 3 0 11 -4 27 -10
35 -8 12 -10 12 -16 -4z"/>
<path d="M1680 10101 c0 -17 30 -25 43 -12 8 8 8 11 0 11 -6 0 -18 3 -27 6 -9
3 -16 1 -16 -5z"/>
<path d="M9745 10090 c3 -5 10 -10 16 -10 5 0 9 5 9 10 0 6 -7 10 -16 10 -8 0
-12 -4 -9 -10z"/>
<path d="M1667 10073 c-5 -7 -6 -17 -3 -22 3 -5 -3 -11 -14 -14 -12 -3 -20
-14 -20 -26 0 -12 -5 -21 -12 -21 -9 0 -9 -3 0 -12 9 -9 8 -16 -4 -29 -18 -20
-13 -34 15 -42 14 -3 19 0 19 12 0 9 3 24 7 34 4 10 3 17 -4 17 -23 0 -10 22
22 35 28 13 29 14 8 15 -19 0 -21 3 -11 15 6 8 10 22 8 32 -2 13 -6 15 -11 6z"/>
<path d="M1836 10061 c-4 -5 -2 -12 3 -15 5 -4 12 -2 15 3 4 5 2 12 -3 15 -5
4 -12 2 -15 -3z"/>
<path d="M9580 10061 c0 -6 5 -13 10 -16 6 -3 10 1 10 9 0 9 -4 16 -10 16 -5
0 -10 -4 -10 -9z"/>
<path d="M9904 10038 c-4 -7 -2 -14 4 -16 7 -2 12 -8 12 -14 0 -5 6 -16 14
-24 13 -12 15 -11 13 8 -2 29 -33 62 -43 46z"/>
<path d="M9760 9995 c0 -18 5 -25 18 -25 25 0 31 7 25 31 -8 29 -43 25 -43 -6z"/>
<path d="M1770 9975 c-7 -14 -11 -28 -8 -31 8 -7 48 32 48 46 0 20 -27 10 -40
-15z"/>
<path d="M9630 9992 c0 -12 19 -26 26 -19 2 2 -2 10 -11 17 -9 8 -15 8 -15 2z"/>
<path d="M1480 9969 c-16 -28 -20 -58 -10 -64 4 -3 11 11 14 30 4 19 14 39 24
44 16 10 16 10 0 11 -10 0 -22 -9 -28 -21z"/>
<path d="M9817 9951 c-3 -12 1 -22 9 -25 10 -4 14 2 14 19 0 30 -16 33 -23 6z"/>
<path d="M9960 9933 c0 -29 34 -91 54 -97 10 -2 15 -9 12 -15 -4 -5 -2 -12 4
-16 18 -11 10 39 -10 65 -11 14 -20 28 -20 33 0 4 -9 16 -20 27 -17 17 -20 18
-20 3z"/>
<path d="M9680 9925 c0 -8 5 -15 10 -15 6 0 10 7 10 15 0 8 -4 15 -10 15 -5 0
-10 -7 -10 -15z"/>
<path d="M1722 9893 c-31 -34 -37 -54 -17 -55 6 0 15 9 22 22 6 12 17 26 23
30 7 4 10 14 8 23 -2 12 -11 7 -36 -20z"/>
<path d="M1574 9899 c-4 -7 -8 -30 -10 -53 l-3 -41 12 32 c13 35 27 53 27 35
0 -7 7 -12 15 -12 20 0 19 6 -5 30 -23 23 -26 24 -36 9z"/>
<path d="M1422 9878 c-7 -7 -12 -19 -12 -27 1 -13 4 -12 15 3 10 13 15 15 15
6 0 -7 3 -11 6 -7 3 3 2 13 -3 21 -7 13 -12 13 -21 4z"/>
<path d="M9714 9859 c7 -36 46 -82 46 -54 0 8 -4 15 -9 15 -6 0 -11 14 -13 32
-2 17 -9 34 -17 36 -11 4 -13 -3 -7 -29z"/>
<path d="M9875 9850 c4 -6 11 -8 16 -5 14 9 11 15 -7 15 -8 0 -12 -5 -9 -10z"/>
<path d="M1396 9804 c-4 -10 -1 -14 6 -12 15 5 23 28 10 28 -5 0 -13 -7 -16
-16z"/>
<path d="M2240 9807 c-54 -42 -65 -104 -24 -136 39 -31 69 -27 98 12 34 44 33
72 -3 108 -32 31 -48 35 -71 16z"/>
<path d="M9900 9789 c0 -16 28 -40 34 -30 9 14 -4 41 -20 41 -8 0 -14 -5 -14
-11z"/>
<path d="M10060 9752 c0 -12 5 -22 10 -22 6 0 10 -9 10 -19 0 -21 13 -35 23
-25 7 7 -12 54 -30 74 -11 12 -13 11 -13 -8z"/>
<path d="M1503 9753 c-7 -2 -13 -16 -13 -29 0 -13 -4 -24 -10 -24 -5 0 -10 -9
-10 -21 0 -14 5 -19 18 -17 9 2 17 10 17 18 0 8 5 18 10 23 6 4 5 10 -4 16
-12 8 -12 12 -2 25 14 17 14 17 -6 9z"/>
<path d="M1660 9749 c0 -5 5 -7 10 -4 6 3 10 8 10 11 0 2 -4 4 -10 4 -5 0 -10
-5 -10 -11z"/>
<path d="M1611 9712 c-8 -16 -7 -21 6 -26 17 -7 35 11 30 28 -6 19 -26 17 -36
-2z"/>
<path d="M1335 9692 c-3 -3 -5 -13 -5 -23 0 -23 26 -15 33 10 4 16 -16 25 -28
13z"/>
<path d="M9400 9688 c-35 -9 -110 -23 -183 -34 -20 -4 -40 -10 -43 -15 -3 -5
-17 -9 -32 -9 -15 0 -52 -9 -82 -20 -30 -11 -65 -20 -77 -20 -12 0 -24 -4 -27
-8 -3 -5 -31 -14 -63 -21 -32 -7 -68 -17 -81 -22 -13 -5 -31 -9 -40 -9 -9 0
-36 -8 -59 -17 -47 -20 -57 -48 -27 -77 17 -18 108 -22 146 -7 13 5 41 14 63
19 22 6 60 16 83 23 52 15 66 9 105 -49 27 -40 30 -82 6 -82 -18 0 -189 -179
-189 -198 0 -27 32 -52 67 -52 30 0 41 9 296 228 141 121 248 226 264 260 18
39 7 70 -34 98 -32 20 -51 23 -93 12z m-40 -136 c0 -4 -12 -16 -26 -27 -116
-88 -140 -105 -149 -104 -17 1 -69 69 -59 79 5 5 27 13 49 19 22 5 63 16 90
24 56 17 95 21 95 9z"/>
<path d="M9825 9669 c-4 -5 0 -18 9 -28 9 -10 13 -21 9 -24 -3 -4 1 -7 11 -7
9 0 15 4 11 9 -3 5 -1 12 5 16 5 3 10 1 10 -6 0 -7 3 -9 6 -6 10 10 -24 57
-41 57 -7 0 -17 -5 -20 -11z"/>
<path d="M1440 9636 c0 -9 5 -16 10 -16 6 0 10 4 10 9 0 6 -4 13 -10 16 -5 3
-10 -1 -10 -9z"/>
<path d="M1600 9639 c0 -5 5 -7 10 -4 6 3 10 8 10 11 0 2 -4 4 -10 4 -5 0 -10
-5 -10 -11z"/>
<path d="M1558 9584 c3 -22 0 -39 -8 -44 -8 -5 -9 -10 -1 -14 13 -8 42 59 35
79 -12 31 -30 16 -26 -21z"/>
<path d="M10008 9608 c9 -9 15 -9 24 0 9 9 7 12 -12 12 -19 0 -21 -3 -12 -12z"/>
<path d="M10120 9614 c0 -4 9 -22 21 -40 11 -19 17 -34 12 -34 -4 0 -1 -6 8
-13 8 -7 19 -21 23 -32 5 -15 9 -16 15 -6 9 13 -8 61 -21 61 -5 0 -8 10 -8 21
0 12 -8 28 -17 35 -20 15 -33 18 -33 8z"/>
<path d="M1274 9557 c2 -18 -2 -31 -10 -34 -8 -3 -14 -14 -14 -25 0 -16 3 -18
14 -9 19 16 24 41 14 71 -7 24 -7 24 -4 -3z"/>
<path d="M2080 9552 c-38 -39 -38 -70 0 -107 27 -26 32 -27 55 -15 40 21 58
66 43 107 -7 18 -17 33 -24 33 -7 0 -19 3 -28 6 -10 4 -27 -6 -46 -24z"/>
<path d="M9873 9564 c-3 -8 4 -25 16 -38 11 -12 21 -28 21 -35 0 -7 4 -9 10
-6 6 4 4 17 -5 35 -8 16 -15 36 -15 45 0 20 -19 20 -27 -1z"/>
<path d="M1520 9490 c0 -5 5 -10 10 -10 6 0 10 5 10 10 0 6 -4 10 -10 10 -5 0
-10 -4 -10 -10z"/>
<path d="M2258 9483 c-23 -6 -31 -48 -14 -85 7 -18 46 -64 85 -103 39 -38 71
-73 71 -78 0 -5 9 -22 21 -38 28 -40 30 -142 4 -182 -15 -23 -24 -28 -54 -25
l-36 3 -10 95 c-11 101 -25 138 -74 184 -26 25 -35 28 -73 23 -32 -4 -51 -15
-75 -41 -31 -34 -33 -40 -33 -109 0 -114 29 -160 147 -235 46 -30 61 -34 123
-35 63 -1 73 2 107 29 55 45 75 88 75 161 0 35 -5 77 -12 93 -7 17 -10 34 -6
37 8 9 60 -21 104 -59 18 -15 37 -28 42 -28 5 0 12 -9 15 -20 3 -11 12 -20 20
-20 17 0 95 -88 95 -107 0 -8 -5 -23 -11 -35 -9 -16 -17 -19 -45 -13 -22 4
-34 2 -34 -5 0 -6 -8 -13 -17 -17 -25 -9 -53 -34 -53 -48 0 -7 14 -27 31 -45
28 -29 36 -32 75 -27 50 5 92 44 122 110 9 20 20 37 24 37 12 0 10 98 -2 105
-5 3 -10 13 -10 22 0 8 -10 28 -22 44 -13 15 -36 46 -53 67 -16 22 -37 43 -46
48 -9 5 -36 22 -60 39 -24 16 -51 34 -60 40 -32 20 -154 105 -194 135 -102 76
-133 92 -167 83z m-32 -291 c36 -22 60 -162 29 -162 -8 0 -15 4 -15 9 0 5 -14
14 -31 21 -53 22 -85 93 -56 125 13 15 55 19 73 7z"/>
<path d="M10080 9456 c0 -14 5 -26 10 -26 6 0 10 9 10 19 0 11 -4 23 -10 26
-6 4 -10 -5 -10 -19z"/>
<path d="M1222 9438 c-13 -36 -12 -40 7 -29 14 9 25 61 12 61 -3 0 -12 -14
-19 -32z"/>
<path d="M10200 9443 c0 -12 9 -29 21 -37 13 -9 18 -19 14 -27 -5 -8 -4 -10 3
-5 19 11 14 32 -13 63 -23 27 -24 27 -25 6z"/>
<path d="M9940 9423 c0 -4 5 -15 10 -23 8 -13 10 -13 10 2 0 9 -4 20 -10 23
-5 3 -10 3 -10 -2z"/>
<path d="M1330 9378 c-11 -23 -20 -55 -20 -72 0 -20 -8 -37 -24 -51 -28 -23
-45 -88 -21 -78 8 3 15 9 15 13 0 4 10 10 22 14 16 4 20 8 12 16 -8 8 -6 21 7
48 11 20 19 42 19 49 0 7 5 13 10 13 6 0 10 6 10 14 0 8 6 17 13 19 9 4 9 8
-2 15 -8 6 -11 17 -8 26 14 35 -14 13 -33 -26z"/>
<path d="M10057 9406 c-4 -9 2 -16 16 -20 27 -7 28 -5 7 17 -15 15 -18 15 -23
3z"/>
<path d="M1476 9385 c-3 -8 -1 -15 4 -15 6 0 10 7 10 15 0 8 -2 15 -4 15 -2 0
-6 -7 -10 -15z"/>
<path d="M10115 9370 c3 -5 8 -10 11 -10 2 0 4 5 4 10 0 6 -5 10 -11 10 -5 0
-7 -4 -4 -10z"/>
<path d="M9980 9352 c0 -30 16 -45 39 -37 35 11 24 48 -16 52 -16 2 -23 -3
-23 -15z"/>
<path d="M10240 9345 c0 -8 5 -15 10 -15 6 0 10 -7 10 -15 0 -8 5 -15 10 -15
12 0 12 2 0 34 -10 28 -30 35 -30 11z"/>
<path d="M1400 9337 c0 -7 8 -22 18 -33 11 -11 22 -26 26 -34 3 -8 4 -4 1 10
-2 14 -5 35 -5 48 0 15 -6 22 -20 22 -11 0 -20 -6 -20 -13z"/>
<path d="M1160 9280 c0 -11 2 -20 4 -20 2 0 6 9 9 20 3 11 1 20 -4 20 -5 0 -9
-9 -9 -20z"/>
<path d="M10280 9255 c0 -14 4 -33 9 -43 5 -9 17 -34 26 -54 20 -47 29 -49 22
-4 -5 34 -44 126 -52 126 -3 0 -5 -11 -5 -25z"/>
<path d="M10030 9226 c0 -22 27 -79 33 -70 2 5 4 20 2 34 -1 14 -3 31 -4 38
-1 17 -31 15 -31 -2z"/>
<path d="M9300 9196 c-25 -12 -79 -42 -120 -65 -41 -24 -91 -52 -110 -63 -77
-44 -88 -74 -38 -111 21 -16 30 -18 41 -9 8 7 52 24 98 38 46 13 92 29 101 34
24 13 46 12 91 -3 81 -29 72 -38 -83 -86 -41 -13 -83 -27 -92 -32 -10 -5 -24
-9 -31 -9 -7 0 -27 -14 -44 -31 -34 -33 -36 -58 -7 -91 20 -21 63 -17 129 13
48 22 163 59 182 59 26 0 103 -42 103 -56 0 -15 -35 -32 -80 -40 -30 -6 -91
-26 -105 -35 -5 -3 -31 -12 -57 -20 -27 -7 -48 -17 -48 -21 0 -4 -7 -8 -15 -8
-20 0 -48 -57 -41 -86 8 -29 65 -84 89 -84 26 0 97 -24 97 -32 0 -5 -8 -8 -19
-8 -10 0 -39 -18 -65 -41 -40 -36 -46 -46 -46 -81 0 -47 30 -95 69 -110 51
-20 133 -38 171 -38 27 0 53 -9 83 -30 25 -16 52 -30 62 -30 10 0 15 -6 13
-17 -3 -19 -32 -26 -158 -42 -95 -12 -124 -24 -134 -53 -22 -64 10 -77 190
-76 78 0 151 -5 167 -11 25 -10 27 -14 22 -45 -6 -30 -3 -36 28 -60 61 -47
128 -26 126 40 -1 45 -31 87 -79 112 -51 26 -55 37 -20 55 33 17 48 60 29 83
-8 9 -42 29 -75 45 -34 15 -64 31 -68 37 -3 5 11 20 31 33 78 51 103 129 62
195 -43 71 -122 102 -302 121 -31 3 -60 9 -63 14 -3 5 -14 9 -24 9 -10 0 -22
5 -26 11 -8 13 13 29 41 29 46 0 161 44 193 74 35 32 42 77 21 119 -19 36 -82
97 -101 97 -25 0 -22 19 7 42 36 28 32 64 -10 104 -30 30 -40 34 -88 34 -29 0
-57 3 -60 7 -10 9 25 32 49 33 47 0 70 62 36 93 -25 23 -68 20 -122 -7z m227
-799 c-6 -11 -18 -27 -24 -35 -7 -7 -13 -20 -13 -27 0 -17 -50 -45 -81 -45
-27 0 -89 21 -89 30 0 11 50 50 63 50 8 0 17 3 21 7 9 10 78 33 99 33 9 0 17
5 17 11 0 5 4 7 10 4 6 -4 5 -14 -3 -28z m157 -13 c22 -8 20 -57 -3 -78 -14
-12 -32 -16 -67 -14 -41 2 -50 7 -52 24 -5 34 34 74 73 74 18 0 40 -3 49 -6z"/>
<path d="M1400 9185 c0 -8 4 -15 8 -15 5 0 9 7 9 15 0 8 -4 15 -9 15 -4 0 -8
-7 -8 -15z"/>
<path d="M1127 9183 c-4 -3 -7 -15 -7 -25 0 -10 -4 -18 -10 -18 -5 0 -10 -9
-10 -21 0 -11 -7 -27 -15 -35 -16 -17 -21 -64 -6 -64 11 0 21 25 21 51 0 10 4
19 8 19 5 0 14 21 19 47 12 49 11 58 0 46z"/>
<path d="M1240 9145 c-15 -17 -5 -49 13 -42 6 2 11 12 11 21 -1 9 2 16 7 16 5
0 9 5 9 10 0 15 -26 12 -40 -5z"/>
<path d="M10176 9141 c-3 -5 1 -11 9 -15 9 -3 15 0 15 9 0 16 -16 20 -24 6z"/>
<path d="M1360 9123 c0 -23 15 -39 24 -25 3 5 -1 18 -9 28 -14 18 -14 18 -15
-3z"/>
<path d="M1817 9122 c-9 -10 -17 -24 -17 -30 0 -7 -4 -20 -9 -30 -20 -37 -69
-150 -88 -202 -51 -138 -58 -175 -43 -216 8 -20 16 -25 36 -22 15 2 30 10 34
18 4 8 12 25 18 37 7 13 12 31 12 41 0 24 23 72 34 72 14 0 121 -53 124 -62 2
-4 10 -8 17 -8 15 0 141 -65 165 -85 20 -16 213 -105 229 -105 6 0 23 11 37
25 29 29 25 69 -10 98 -25 21 -124 87 -131 87 -10 0 -100 44 -115 55 -8 7 -71
41 -140 76 -69 35 -127 64 -129 66 -2 1 3 17 12 35 57 122 60 161 11 166 -20
2 -36 -3 -47 -16z"/>
<path d="M6398 9121 c-26 -9 -50 -19 -54 -23 -4 -5 -13 -8 -21 -8 -36 0 -140
-91 -211 -185 -9 -13 -29 -71 -37 -112 l-7 -33 -61 6 c-97 9 -133 19 -128 35
2 8 6 30 9 51 3 30 0 39 -22 53 -42 28 -112 5 -213 -67 -29 -21 -55 -38 -57
-38 -3 0 -17 21 -31 48 -51 95 -121 184 -169 213 -36 22 -94 24 -139 5 -89
-37 -241 -271 -307 -473 -12 -37 -26 -72 -30 -76 -10 -11 -50 1 -50 14 0 12
-64 93 -100 127 -42 39 -163 93 -231 102 -70 10 -113 7 -207 -17 -75 -19 -152
-82 -152 -125 0 -17 -11 -34 -32 -51 -156 -119 -235 -276 -240 -478 -4 -124
21 -215 81 -304 56 -83 131 -136 259 -186 18 -7 22 -14 16 -32 -10 -30 -11
-54 -24 -337 -6 -135 -14 -256 -19 -270 -5 -14 -17 -59 -26 -100 -10 -41 -21
-79 -25 -85 -4 -5 -22 -44 -39 -85 -18 -41 -35 -82 -40 -90 -4 -8 -19 -49 -32
-90 -19 -59 -24 -97 -24 -176 0 -93 2 -104 27 -140 14 -21 33 -67 42 -101 18
-72 49 -142 87 -198 52 -75 189 -205 217 -205 5 0 16 -7 23 -16 7 -9 22 -19
33 -23 16 -6 11 -12 -30 -37 -27 -16 -54 -31 -60 -34 -6 -3 -35 -25 -65 -50
-256 -216 -437 -498 -525 -819 -24 -85 -26 -108 -22 -225 4 -115 8 -140 33
-201 33 -84 88 -169 132 -209 18 -16 33 -35 33 -42 0 -6 -16 -37 -35 -69 -19
-32 -40 -74 -46 -94 -6 -20 -17 -47 -24 -61 -17 -32 -40 -114 -62 -220 -14
-66 -18 -127 -17 -275 1 -180 3 -196 32 -299 17 -60 36 -114 42 -120 5 -5 10
-17 10 -26 0 -9 9 -26 20 -38 11 -12 20 -24 20 -27 0 -20 153 -171 194 -192
17 -9 33 -19 36 -22 10 -13 81 -51 96 -51 8 0 14 -4 14 -10 0 -5 5 -10 11 -10
12 0 298 -141 340 -168 65 -41 147 -98 179 -125 19 -15 47 -38 62 -50 15 -12
38 -31 50 -42 49 -44 206 -154 263 -183 33 -17 101 -45 150 -62 50 -18 99 -36
110 -41 33 -16 183 -25 285 -17 78 6 107 14 160 40 36 18 67 36 70 40 3 4 18
11 33 17 15 6 27 17 27 25 0 8 9 17 19 21 11 3 23 14 26 25 3 10 12 21 20 24
8 3 15 12 15 21 0 8 4 15 8 15 14 0 79 124 100 190 27 89 39 141 53 240 7 47
14 87 15 89 2 2 27 -14 56 -36 160 -121 237 -236 293 -438 20 -73 55 -166 67
-179 4 -6 8 -17 8 -25 0 -8 21 -57 47 -108 59 -118 121 -182 247 -253 168 -94
500 -109 663 -30 23 11 46 20 50 20 9 0 176 88 248 130 66 38 212 110 224 110
7 0 26 7 43 16 62 32 135 45 290 51 175 6 159 11 253 -71 41 -35 146 -90 223
-115 168 -54 447 -9 563 91 15 13 43 37 63 53 83 67 166 214 191 340 18 86 16
241 -3 327 -21 91 -79 193 -155 271 -100 102 -166 140 -317 181 -108 29 -285
20 -379 -21 -31 -13 -68 -29 -83 -36 -16 -6 -28 -15 -28 -19 0 -4 -7 -8 -15
-8 -23 0 -111 -85 -172 -167 -29 -40 -53 -76 -53 -81 0 -4 -9 -26 -19 -48 -11
-22 -22 -56 -26 -77 -4 -20 -11 -40 -16 -43 -18 -11 -10 -220 11 -296 11 -40
20 -77 20 -83 0 -7 -45 -12 -122 -13 -74 -2 -145 -9 -178 -19 -110 -31 -277
-109 -465 -215 -67 -38 -180 -88 -198 -88 -7 0 -25 -7 -42 -16 -21 -11 -69
-18 -163 -21 -202 -9 -310 27 -420 137 -68 67 -107 143 -153 290 -41 134 -119
305 -181 398 -26 40 -48 74 -48 77 0 3 -25 28 -55 57 -30 28 -55 55 -55 59 0
10 113 0 195 -17 132 -28 217 -53 328 -95 43 -16 82 -27 87 -24 5 3 11 1 15
-4 6 -10 288 -151 302 -151 4 0 51 -23 103 -50 96 -51 191 -97 244 -119 54
-23 151 -25 231 -6 42 9 78 21 81 26 3 5 11 9 19 9 20 0 105 53 105 65 0 6 12
16 28 22 27 13 112 87 112 100 0 3 18 29 39 58 66 88 163 300 230 505 16 47
39 108 51 135 13 28 26 59 31 70 48 122 63 169 84 252 33 131 40 209 25 274
-28 121 -107 229 -203 278 -15 8 -27 18 -27 22 0 4 -15 16 -32 28 -18 11 -40
25 -48 30 -61 40 -119 56 -222 59 -105 4 -106 4 -113 30 -3 14 -15 45 -26 69
-23 50 -24 63 -4 63 19 0 115 91 115 109 0 8 7 19 15 25 21 15 55 155 55 222
0 68 -31 182 -66 243 -43 73 -151 171 -235 213 -126 62 -275 83 -375 53 -67
-20 -66 -20 -100 26 -16 22 -34 46 -39 52 -6 7 -30 37 -55 67 -52 63 -208 220
-219 220 -4 0 -20 14 -37 31 -16 17 -50 45 -76 61 -27 17 -48 34 -48 37 0 3
12 15 26 26 14 11 35 30 46 43 12 12 25 22 29 22 10 0 67 48 116 100 161 166
270 383 281 553 4 70 8 81 35 108 29 30 30 31 25 114 -12 182 -108 349 -279
485 -77 61 -120 113 -155 186 -34 69 -44 114 -74 344 -25 184 -80 384 -135
491 -15 28 -15 29 39 83 137 135 164 369 67 577 -35 76 -117 159 -194 197 -28
14 -47 30 -47 40 0 20 -46 53 -113 81 -61 26 -216 27 -289 2z m285 -57 c45
-21 46 -30 7 -39 -33 -7 -41 -25 -10 -25 10 0 29 -4 42 -9 13 -5 35 -12 49
-15 34 -7 130 -73 161 -111 35 -42 85 -141 98 -197 7 -25 10 -92 8 -150 -2
-85 -7 -112 -28 -153 -26 -54 -95 -135 -114 -135 -11 1 -59 61 -87 112 -15 26
-15 35 -3 81 27 102 8 188 -56 254 -55 56 -112 77 -193 71 -72 -6 -110 -23
-154 -68 l-31 -32 -94 36 c-51 20 -98 36 -104 36 -6 0 -18 8 -26 18 -14 15
-14 22 2 73 46 143 113 206 277 260 71 24 200 20 256 -7z m-1256 -108 c35 -38
69 -91 109 -173 31 -65 76 -143 98 -173 66 -88 99 -156 98 -206 -2 -76 -32
-114 -127 -160 -56 -26 -293 -33 -349 -10 -21 9 -49 16 -61 16 -43 0 -107 108
-83 139 17 20 97 98 138 134 l32 27 -31 0 c-43 0 -100 -31 -149 -80 -23 -22
-44 -40 -47 -40 -19 0 -75 58 -75 77 0 78 168 399 244 465 73 65 131 60 203
-16z m393 -118 c0 -13 -23 -44 -60 -80 -57 -55 -72 -78 -50 -78 6 0 28 11 50
25 28 18 54 25 87 25 71 0 324 -44 348 -60 6 -4 35 -15 65 -24 51 -16 276
-124 303 -146 219 -177 300 -286 381 -518 33 -97 72 -290 86 -427 10 -104 20
-154 40 -200 5 -11 11 -31 14 -45 11 -55 82 -142 188 -233 85 -73 101 -89 128
-127 13 -19 27 -37 31 -40 3 -3 22 -39 41 -80 48 -101 78 -251 50 -250 -4 1
-24 28 -45 62 -21 33 -40 58 -43 55 -3 -3 2 -31 12 -63 33 -115 19 -296 -32
-413 -28 -64 -39 -86 -44 -91 -3 -3 -15 -24 -27 -47 -38 -71 -159 -223 -178
-223 -2 0 -26 -22 -53 -50 -27 -27 -54 -50 -58 -50 -5 0 -23 -13 -40 -28 -60
-52 -77 -61 -265 -153 -151 -74 -179 -86 -211 -94 -16 -4 -28 -11 -28 -16 0
-5 1 -9 3 -9 10 0 254 83 262 90 6 4 21 11 33 15 13 4 49 22 81 41 l57 34 36
-18 c47 -24 166 -120 233 -188 139 -141 255 -279 255 -303 0 -5 -25 -35 -55
-66 -30 -32 -55 -62 -55 -67 0 -6 -6 -24 -13 -41 -26 -61 -37 -104 -37 -145 0
-30 -4 -42 -15 -42 -47 0 -120 -25 -151 -52 -35 -31 -64 -32 -64 -3 0 25 -37
87 -43 72 -6 -17 3 -66 14 -73 23 -14 7 -62 -37 -112 -25 -29 -50 -52 -55 -52
-5 0 -19 12 -32 26 -37 44 -128 109 -202 145 -66 31 -76 33 -175 33 -128 0
-186 -20 -291 -99 -88 -67 -150 -157 -185 -272 -15 -46 -31 -83 -37 -83 -14 0
-97 92 -97 108 0 7 14 31 32 53 26 32 33 51 36 98 5 73 -29 156 -78 192 -18
13 -40 40 -50 60 -51 99 -209 189 -333 189 -29 0 -46 7 -68 29 -16 16 -29 34
-29 39 0 18 176 122 207 122 10 0 28 7 39 15 29 20 164 52 252 60 78 8 92 18
72 55 -6 12 -9 24 -6 27 8 8 66 -17 103 -45 29 -21 61 -23 48 -2 -8 13 97 62
109 50 7 -7 7 -17 -2 -30 -21 -34 -14 -40 51 -40 34 0 80 -5 102 -10 22 -6 55
-13 74 -15 19 -3 56 -19 83 -35 26 -17 53 -30 58 -30 12 0 49 -20 68 -37 7 -7
17 -13 22 -13 4 0 30 -21 58 -47 97 -93 92 -90 92 -59 0 16 -4 25 -10 21 -6
-3 -10 0 -10 7 0 7 -16 24 -35 36 -19 13 -47 36 -63 50 -63 57 -158 105 -204
104 -10 -1 -18 3 -18 8 0 16 -72 41 -138 47 -51 5 -66 11 -78 28 -8 13 -13 28
-12 35 2 7 -9 20 -23 28 -25 15 -29 14 -78 -21 -50 -36 -84 -46 -95 -28 -9 14
-115 61 -138 61 -19 0 -20 -4 -14 -54 l6 -53 -63 -6 c-85 -8 -253 -65 -373
-126 -55 -28 -106 -51 -114 -51 -8 1 -39 37 -69 81 -51 75 -98 139 -136 182
-8 9 -15 21 -15 25 0 8 -71 107 -137 193 -15 21 -44 58 -63 85 -65 88 -182
200 -234 222 -57 26 -77 27 -116 7 -38 -20 -48 -79 -25 -148 9 -27 14 -54 12
-61 -3 -7 -23 -18 -46 -25 -36 -10 -46 -10 -74 6 -17 10 -34 21 -37 24 -3 3
-30 22 -61 41 -99 63 -207 187 -237 273 -29 81 -35 112 -41 210 l-6 100 -27
-45 -28 -45 0 68 c0 64 21 189 40 232 4 11 29 67 55 125 26 58 51 114 55 125
31 72 58 249 65 440 4 83 13 197 21 255 8 58 15 114 17 124 2 15 -11 23 -68
41 -84 26 -107 38 -162 83 -52 43 -95 110 -120 182 -28 83 -25 252 7 345 25
74 61 145 88 174 9 10 32 34 50 54 35 38 134 97 164 97 10 0 18 5 18 10 0 6
-11 10 -24 10 -13 0 -29 6 -35 14 -9 11 -6 18 16 34 82 58 238 70 345 27 71
-29 148 -90 184 -146 25 -40 31 -69 14 -69 -6 0 -18 -16 -27 -36 -16 -33 -20
-35 -53 -31 -19 3 -53 10 -75 16 -103 27 -275 4 -372 -50 -97 -55 -140 -128
-130 -223 8 -78 83 -198 166 -265 24 -20 43 -46 51 -73 70 -222 215 -308 339
-201 96 82 175 229 221 409 l10 41 66 6 c54 4 71 10 96 33 17 16 37 44 45 63
13 30 17 33 46 27 80 -16 239 -28 304 -22 134 11 211 50 260 133 57 98 30 202
-94 360 -52 66 -51 74 17 127 98 77 140 93 140 54z m850 -158 c44 -22 64 -44
84 -94 20 -49 20 -106 0 -154 -13 -32 -17 -35 -25 -19 -15 25 -162 131 -236
169 -69 36 -76 53 -36 82 62 46 142 52 213 16z m-1673 -281 c51 -50 90 -119
99 -176 5 -35 2 -43 -26 -71 -68 -68 -159 -24 -220 106 -26 53 -31 75 -27 110
7 63 31 85 85 79 35 -4 53 -14 89 -48z m-304 -46 c45 -13 62 -23 73 -44 20
-40 18 -56 -13 -76 -50 -32 -143 -116 -143 -129 0 -22 19 -16 87 26 95 61 111
61 151 5 32 -46 39 -81 23 -113 -5 -9 -19 -48 -31 -87 -13 -38 -27 -74 -31
-79 -5 -6 -9 -20 -9 -33 0 -13 -4 -23 -8 -23 -4 0 -16 -14 -26 -31 -29 -50
-113 -127 -146 -134 -59 -13 -131 49 -170 145 -5 14 -15 33 -20 42 -6 10 -10
26 -10 37 0 11 -23 36 -54 61 -97 74 -165 176 -166 247 0 44 39 112 80 139
104 69 269 87 413 47z m59 -2502 c42 -17 228 -209 228 -235 0 -4 6 -14 13 -21
27 -31 40 -48 121 -162 47 -65 89 -123 93 -128 38 -47 123 -166 123 -172 0 -4
14 -21 30 -38 18 -18 32 -44 33 -61 2 -28 1 -29 -58 -35 -56 -6 -62 -4 -84 20
-93 101 -128 142 -141 161 -8 13 -26 36 -40 51 -28 31 -33 37 -74 94 -16 22
-36 47 -43 55 -25 28 -73 93 -73 99 0 3 -12 20 -28 36 -15 17 -34 44 -42 60
-8 17 -18 32 -21 35 -12 10 -97 155 -104 178 -17 57 12 85 67 63z m-55 -223
c12 -13 34 -44 50 -69 39 -64 135 -189 145 -189 4 0 8 -6 8 -13 0 -7 12 -26
28 -43 23 -26 47 -55 112 -138 15 -20 36 -43 115 -130 25 -27 45 -55 45 -62 0
-7 -30 -26 -67 -44 -37 -17 -81 -41 -98 -54 -16 -13 -41 -26 -53 -31 -21 -6
-23 -4 -18 13 12 38 -11 32 -29 -8 -28 -63 -42 -71 -90 -54 -177 65 -400 94
-524 68 -25 -5 -22 -16 7 -21 9 -1 53 -5 97 -9 44 -3 118 -13 164 -21 88 -16
270 -68 284 -82 4 -4 1 -27 -8 -50 -28 -80 -17 -89 23 -22 38 66 116 139 191
182 23 12 41 26 41 30 0 5 17 11 38 15 20 4 45 11 55 16 73 38 287 51 397 24
118 -28 213 -98 227 -167 3 -16 10 -32 14 -35 15 -9 10 -81 -7 -124 -17 -43
-33 -50 -55 -23 -47 56 -193 114 -282 112 l-42 -1 38 -9 c21 -5 73 -25 115
-44 118 -55 175 -119 187 -210 11 -84 -28 -185 -85 -215 -16 -9 -22 -4 -43 30
-13 22 -41 53 -64 69 -42 31 -131 56 -173 49 -27 -5 -28 -5 52 -33 89 -33 167
-133 153 -197 -25 -110 -124 -179 -237 -164 -42 6 -52 3 -88 -23 -73 -52 -216
-68 -292 -31 -23 11 -48 20 -55 20 -7 0 -13 4 -13 10 0 5 -13 16 -30 25 -26
13 -30 14 -30 1 0 -8 5 -18 10 -21 16 -10 11 -43 -7 -49 -38 -10 -133 -25
-244 -37 -107 -11 -127 -10 -242 9 -70 12 -143 30 -164 40 -21 11 -49 23 -63
27 -43 13 -126 71 -197 139 -65 61 -96 110 -164 257 -13 29 -20 213 -11 279
15 98 49 203 103 315 46 95 78 154 89 165 3 3 11 17 19 33 8 15 18 27 23 27 4
0 8 5 8 10 0 6 5 16 10 23 6 7 35 44 66 82 53 67 202 215 216 215 3 0 19 11
35 24 44 37 121 78 203 107 41 15 78 27 81 28 3 0 15 -9 26 -21z m3136 -517
c80 -20 181 -71 233 -118 51 -46 103 -131 125 -205 17 -56 20 -87 17 -161 -5
-102 -27 -161 -78 -213 -41 -42 -126 -87 -150 -79 -25 8 -26 43 -2 52 25 10
36 23 71 84 40 72 42 112 1 47 -53 -85 -131 -128 -232 -128 -51 0 -70 5 -101
25 -49 34 -49 64 -2 89 60 33 136 157 134 221 -1 28 -2 27 -12 -10 -28 -109
-147 -203 -238 -189 -74 12 -129 85 -129 171 0 44 25 132 43 149 4 4 7 14 7
22 0 31 -29 -6 -74 -95 -14 -28 -25 -33 -53 -22 -20 7 -23 15 -23 63 0 51 4
69 33 136 22 50 76 106 128 132 102 51 184 59 302 29z m-1875 -483 c12 -42 3
-92 -23 -131 -24 -38 -52 -52 -71 -36 -22 18 -17 51 16 114 17 31 30 69 30 84
0 58 28 40 48 -31z m-41 -295 c23 -27 56 -64 73 -83 17 -19 45 -55 62 -80 18
-25 34 -47 38 -50 30 -24 89 -134 96 -179 6 -35 4 -39 -21 -45 -24 -6 -35 1
-100 69 -63 65 -131 144 -157 180 -4 6 -26 31 -49 57 l-41 48 16 34 c9 19 16
41 16 49 0 21 11 47 19 47 4 0 26 -21 48 -47z m2037 -126 c11 -28 28 -107 23
-107 -1 0 -17 -4 -36 -10 l-33 -9 7 52 c5 29 7 67 7 85 -2 40 13 34 32 -11z
m-2115 -82 c1 -5 -17 -29 -39 -53 -22 -23 -49 -61 -60 -82 -11 -22 -28 -57
-39 -77 -10 -21 -22 -57 -26 -80 -8 -53 -17 -59 -51 -37 -18 12 -54 19 -110
22 -91 5 -145 -9 -215 -55 -20 -13 -61 -28 -92 -33 -72 -11 -134 -48 -192
-112 -42 -47 -48 -50 -80 -44 -19 4 -37 11 -40 16 -13 21 -38 233 -29 247 5 8
33 23 61 33 52 18 54 18 110 -2 48 -17 73 -19 143 -15 83 6 121 18 180 60 16
11 43 17 79 17 74 0 124 17 171 58 39 33 80 97 80 125 0 15 43 58 75 75 17 9
24 5 47 -21 15 -18 27 -36 27 -42z m2476 -40 c118 -31 194 -103 226 -215 l13
-45 6 55 5 55 40 -37 c86 -78 117 -197 90 -352 -8 -52 -24 -119 -34 -148 -25
-73 -160 -436 -176 -473 -7 -16 -16 -46 -20 -65 -11 -51 -118 -283 -141 -305
-5 -5 -23 -29 -38 -52 -16 -24 -33 -43 -37 -43 -5 0 -9 -6 -9 -12 0 -22 -96
-102 -167 -140 -42 -22 -102 -44 -155 -54 -76 -16 -93 -17 -140 -5 -129 33
-217 95 -255 181 -13 30 -32 69 -41 85 -13 24 -17 66 -20 204 -4 170 -2 182
29 243 5 10 9 31 9 47 0 16 4 31 9 33 5 2 11 23 15 48 l6 45 -25 -55 c-14 -30
-26 -69 -27 -87 -1 -18 -5 -30 -10 -27 -5 4 -8 -4 -6 -17 2 -15 -2 -23 -9 -22
-7 2 -15 -13 -18 -35 -3 -20 -11 -58 -16 -84 -18 -80 3 -271 36 -335 17 -32
20 -73 5 -73 -5 0 -10 5 -10 10 0 6 -5 10 -10 10 -6 0 -84 36 -173 81 -89 44
-178 86 -197 94 -142 54 -182 68 -235 85 -83 26 -188 47 -265 55 -113 10 -132
15 -119 31 6 8 20 14 30 14 9 0 24 7 33 15 8 8 20 15 26 15 6 0 16 4 23 10 56
45 76 60 83 60 13 0 126 110 154 150 14 19 32 42 40 50 9 9 24 27 33 40 16 23
18 23 66 11 42 -11 53 -10 78 3 50 28 218 148 226 162 4 8 15 14 22 14 8 0 15
4 15 9 0 5 9 13 20 16 25 8 302 281 389 384 64 75 133 176 171 250 12 25 32
46 47 52 40 15 123 13 164 -5 44 -19 107 -80 115 -112 7 -28 24 -32 24 -6 -1
28 -35 96 -70 136 -19 21 -29 41 -24 46 24 23 120 25 199 5z m-2158 -17 c-3
-8 -6 -5 -6 6 -1 11 2 17 5 13 3 -3 4 -12 1 -19z m-187 -86 c0 -5 30 -40 66
-78 36 -38 73 -82 81 -99 53 -102 262 -319 390 -405 23 -16 54 -37 70 -48 66
-46 153 -102 158 -102 11 0 115 -75 115 -82 0 -19 -57 -93 -114 -148 -10 -11
-15 -24 -11 -31 5 -8 4 -10 -3 -5 -7 4 -32 -12 -58 -37 -26 -25 -58 -51 -73
-58 -14 -7 -35 -20 -46 -30 -39 -32 -141 -80 -180 -86 -33 -4 -48 0 -79 21
-21 14 -42 26 -46 26 -4 0 -10 55 -14 123 -13 241 -57 467 -112 583 -46 94
-138 191 -208 220 -26 11 -48 26 -51 35 -6 18 22 105 54 167 14 28 28 42 41
42 11 0 20 -4 20 -8z m-1857 -50 c45 -26 96 -53 112 -59 122 -47 321 -68 482
-52 58 6 108 8 111 4 4 -4 7 -27 8 -53 0 -26 4 -73 8 -104 l7 -57 -113 5 c-86
5 -130 2 -183 -10 -72 -17 -195 -73 -195 -89 0 -5 8 -6 18 -2 9 4 35 12 57 18
22 5 45 13 50 17 22 17 170 32 262 28 89 -5 170 -25 197 -49 5 -5 -2 -32 -17
-66 -48 -108 -68 -208 -74 -361 -6 -168 17 -351 49 -387 9 -10 2 105 -9 135
-8 25 -3 280 8 360 26 190 101 341 215 427 43 33 57 38 115 41 78 5 108 -8
174 -74 25 -24 45 -43 45 -41 0 14 -41 82 -67 111 -40 43 -41 50 -5 65 77 31
169 33 243 3 38 -15 101 -92 124 -150 10 -28 22 -47 26 -41 10 16 -2 112 -17
134 -8 11 -14 27 -14 37 0 49 160 -7 239 -84 28 -27 51 -51 51 -53 0 -2 13
-25 29 -50 47 -74 74 -179 106 -405 18 -124 21 -482 5 -620 -33 -293 -132
-475 -308 -568 -83 -44 -214 -61 -329 -44 -65 10 -89 20 -144 57 -37 25 -94
72 -127 105 -65 66 -78 73 -60 35 6 -14 14 -25 17 -25 4 0 17 -18 31 -40 14
-22 28 -40 31 -40 4 0 9 -6 12 -14 5 -11 0 -13 -21 -7 -41 12 -152 70 -192
101 -19 15 -91 69 -160 120 -69 52 -153 115 -187 142 -34 26 -67 48 -73 48 -5
0 -10 3 -10 8 0 4 -10 12 -23 17 -12 6 -40 20 -62 32 -22 12 -119 61 -215 109
-278 138 -375 228 -451 421 -42 106 -53 184 -53 358 0 94 3 184 6 200 39 183
61 257 101 341 43 92 57 114 73 114 9 0 53 -22 97 -48z"/>
<path d="M6520 8173 c-43 -14 -60 -28 -60 -50 0 -21 4 -23 49 -23 67 0 128
-28 181 -83 75 -79 73 -32 -3 71 -50 68 -116 102 -167 85z"/>
<path d="M5407 7945 c-67 -23 -128 -87 -157 -163 -37 -97 -18 -147 24 -64 34
68 86 115 153 143 66 26 76 36 62 61 -16 30 -41 37 -82 23z"/>
<path d="M6762 7514 c-28 -22 -44 -27 -102 -28 -52 -1 -75 -6 -95 -21 -41 -31
-82 -112 -96 -190 -14 -81 -6 -280 12 -301 6 -8 23 -14 36 -14 27 0 125 -49
118 -59 -2 -4 8 -6 22 -5 32 1 73 46 74 82 1 15 3 38 5 52 9 70 -40 195 -85
220 -37 19 -121 3 -121 -24 0 -6 -4 -6 -11 1 -17 17 17 116 52 153 87 91 196
15 229 -160 13 -67 11 -210 -2 -227 -15 -19 5 -16 44 5 18 10 39 17 45 15 7
-3 23 3 35 11 18 13 19 16 6 16 -9 0 -20 -5 -23 -10 -6 -9 -42 -5 -54 6 -2 2
-3 36 -2 75 1 39 -6 107 -15 151 l-17 79 26 25 c38 35 34 44 -17 44 -25 0 -48
5 -51 10 -4 6 3 25 14 44 21 33 28 76 14 76 -5 0 -23 -12 -41 -26z m-137 -335
c4 -5 4 -21 1 -35 -5 -18 -13 -24 -34 -24 -52 0 -70 46 -30 74 21 15 49 9 63
-15z"/>
<path d="M5603 7309 c-18 -5 -45 -25 -60 -44 -16 -19 -34 -35 -41 -35 -7 0
-30 11 -52 25 -35 22 -41 23 -47 9 -4 -10 10 -32 43 -65 35 -36 45 -52 37 -60
-8 -8 -21 -8 -47 1 -37 12 -56 7 -56 -14 0 -16 39 -52 66 -60 19 -6 23 -17 29
-91 4 -47 13 -109 22 -137 33 -117 33 -119 13 -108 -23 12 -140 13 -158 1 -8
-5 29 -13 95 -20 59 -7 141 -21 181 -32 40 -11 78 -16 84 -13 6 4 8 3 5 -3 -3
-5 9 -25 28 -43 74 -72 69 -166 -14 -267 -51 -62 -119 -101 -226 -127 -11 -3
10 -4 46 -3 62 3 157 36 167 60 2 4 19 24 38 44 61 65 110 203 72 203 -9 0 -8
4 2 10 13 9 13 12 -2 20 -9 6 -15 19 -13 30 2 11 -1 22 -6 26 -6 4 -6 11 2 20
6 7 15 11 20 8 5 -3 9 -1 9 5 0 5 12 24 26 41 15 17 23 34 19 38 -4 4 -10 1
-12 -6 -3 -7 -11 -19 -19 -26 -8 -8 -14 -19 -14 -25 0 -6 -9 -11 -19 -11 -11
0 -21 -6 -24 -12 -3 -10 -9 -9 -21 3 -15 14 -15 18 0 49 25 50 30 166 10 228
-47 141 -152 202 -224 131 -18 -18 -35 -29 -39 -26 -3 4 0 33 7 66 40 190 206
182 299 -14 34 -71 49 -149 53 -262 1 -46 5 -83 9 -83 19 0 31 78 26 160 -12
188 -103 356 -219 404 -42 18 -49 18 -95 5z m35 -337 c-2 -23 -8 -27 -33 -27
-24 0 -31 5 -33 24 -5 32 23 54 50 40 13 -7 18 -19 16 -37z"/>
<path d="M6215 6950 c-7 -12 22 -12 50 0 17 7 15 9 -12 9 -17 1 -35 -3 -38 -9z"/>
<path d="M6012 6854 c-12 -8 -22 -20 -22 -25 0 -6 5 -6 13 1 6 6 21 17 32 25
11 8 15 15 10 15 -6 0 -21 -7 -33 -16z"/>
<path d="M6760 6780 c0 -5 10 -10 23 -10 18 0 19 2 7 10 -19 13 -30 13 -30 0z"/>
<path d="M6795 6740 c-3 -5 -1 -10 4 -10 6 0 11 5 11 10 0 6 -2 10 -4 10 -3 0
-8 -4 -11 -10z"/>
<path d="M6842 6570 c0 -14 2 -19 5 -12 2 6 2 18 0 25 -3 6 -5 1 -5 -13z"/>
<path d="M6842 6448 c-1 -31 -5 -65 -8 -75 -5 -14 -4 -15 5 -7 8 7 11 34 8 75
l-3 64 -2 -57z"/>
<path d="M6790 6276 c0 -24 17 -28 23 -6 3 13 0 20 -9 20 -8 0 -14 -6 -14 -14z"/>
<path d="M5755 6214 c17 -25 25 -51 25 -80 0 -94 81 -241 178 -322 27 -23 75
-49 111 -62 54 -18 71 -20 113 -11 84 19 151 75 234 197 31 46 63 84 71 84 8
0 22 7 31 16 15 15 15 16 -3 10 -140 -44 -358 -30 -500 31 -61 26 -202 108
-220 128 -5 6 -22 19 -37 28 l-27 17 24 -36z m221 -257 c28 -12 106 -61 131
-82 6 -5 28 -21 47 -35 20 -14 36 -28 36 -32 0 -5 -18 -8 -41 -8 -41 0 -127
32 -164 60 -39 30 -85 82 -85 96 0 18 38 18 76 1z"/>
<path d="M6750 6215 c-13 -14 -20 -28 -17 -32 6 -5 57 41 57 53 0 11 -19 2
-40 -21z"/>
<path d="M6680 6146 c0 -9 7 -12 20 -9 11 3 20 9 20 14 0 5 -9 9 -20 9 -11 0
-20 -6 -20 -14z"/>
<path d="M6625 6100 c-3 -5 -14 -10 -24 -10 -23 0 -73 -39 -52 -40 24 0 102
41 95 51 -7 12 -11 11 -19 -1z"/>
<path d="M6265 5640 c-16 -26 -81 -42 -158 -37 -66 3 -76 2 -64 -10 7 -8 43
-16 81 -19 65 -4 71 -3 122 31 30 20 54 38 54 41 0 8 -29 4 -35 -6z"/>
<path d="M5996 5625 c4 -8 11 -15 16 -15 6 0 5 6 -2 15 -7 8 -14 15 -16 15 -2
0 -1 -7 2 -15z"/>
<path d="M6750 5291 c0 -4 17 -28 38 -52 61 -72 105 -164 99 -210 -3 -21 -2
-39 2 -41 7 -4 91 -115 91 -122 0 -3 10 -22 22 -42 18 -31 23 -34 28 -19 8 23
-38 118 -54 112 -9 -4 -12 13 -12 57 1 55 -4 69 -44 140 -59 104 -170 220
-170 177z"/>
<path d="M4996 4994 c-10 -33 -22 -64 -28 -71 -6 -7 -5 -14 2 -18 6 -4 12 -5
14 -4 9 13 38 129 34 139 -2 7 -12 -14 -22 -46z"/>
<path d="M5578 3413 c7 -3 16 -2 19 1 4 3 -2 6 -13 5 -11 0 -14 -3 -6 -6z"/>
<path d="M10058 9133 c7 -3 16 -2 19 1 4 3 -2 6 -13 5 -11 0 -14 -3 -6 -6z"/>
<path d="M10345 9100 c-7 -12 2 -30 16 -30 12 0 12 27 0 35 -5 3 -12 1 -16 -5z"/>
<path d="M1200 9070 c0 -5 5 -10 10 -10 6 0 10 5 10 10 0 6 -4 10 -10 10 -5 0
-10 -4 -10 -10z"/>
<path d="M10080 9041 c0 -10 7 -24 15 -31 8 -7 15 -23 15 -36 0 -33 21 -74 38
-74 12 0 12 3 2 15 -10 12 -10 21 -2 40 7 15 8 25 2 25 -6 0 -10 6 -10 13 0
12 -46 67 -55 67 -3 0 -5 -8 -5 -19z"/>
<path d="M10354 9050 c3 -8 9 -23 12 -33 7 -19 25 -18 32 1 2 7 -3 12 -12 12
-8 0 -20 8 -26 18 -6 9 -9 10 -6 2z"/>
<path d="M1191 9024 c0 -11 3 -14 6 -6 3 7 2 16 -1 19 -3 4 -6 -2 -5 -13z"/>
<path d="M10381 8947 c5 -17 9 -34 9 -37 0 -9 20 25 20 35 0 6 -9 16 -19 22
-18 11 -19 10 -10 -20z"/>
<path d="M1304 8945 c-4 -9 -2 -21 5 -28 13 -13 18 -9 23 17 4 24 -20 33 -28
11z"/>
<path d="M10268 8904 c6 -33 22 -41 22 -11 0 14 -6 27 -13 30 -10 4 -13 -2 -9
-19z"/>
<path d="M1027 8905 c-4 -8 -2 -17 3 -20 16 -10 12 -35 -5 -35 -8 0 -15 -7
-15 -15 0 -20 13 -19 33 3 19 20 23 52 7 52 -5 0 -10 5 -10 11 0 5 5 7 12 3 7
-4 8 -3 4 4 -10 16 -23 15 -29 -3z"/>
<path d="M10406 8902 c-3 -6 3 -45 14 -86 11 -42 20 -84 20 -95 0 -10 6 -21
14 -24 9 -4 12 -17 10 -39 -3 -18 0 -42 5 -53 14 -31 24 -77 22 -105 -2 -27
23 -69 35 -58 4 4 1 38 -5 75 -7 38 -16 86 -20 108 -4 22 -12 49 -19 60 -6 11
-18 60 -28 108 -18 89 -35 129 -48 109z"/>
<path d="M1280 8890 c0 -5 5 -10 10 -10 6 0 10 5 10 10 0 6 -4 10 -10 10 -5 0
-10 -4 -10 -10z"/>
<path d="M10150 8860 c0 -12 10 -24 23 -30 17 -7 18 -9 5 -9 -22 -1 -24 -21
-2 -21 12 0 15 -7 12 -30 -4 -23 -1 -30 13 -30 22 0 30 32 12 48 -7 7 -13 25
-13 40 0 30 -16 52 -37 52 -7 0 -13 -9 -13 -20z"/>
<path d="M1300 8855 c0 -8 2 -15 4 -15 2 0 6 7 10 15 3 8 1 15 -4 15 -6 0 -10
-7 -10 -15z"/>
<path d="M10290 8829 c0 -22 4 -30 16 -27 8 2 15 6 15 11 -1 4 -1 16 -1 27 0
11 -7 20 -15 20 -10 0 -15 -10 -15 -31z"/>
<path d="M1280 8823 c0 -14 -6 -23 -15 -23 -19 0 -32 -27 -33 -71 -1 -21 -3
-41 -4 -45 -6 -18 8 -17 30 1 17 15 22 30 22 65 0 25 4 50 10 56 6 6 6 15 0
24 -8 12 -10 10 -10 -7z"/>
<path d="M1140 8803 c0 -10 5 -25 10 -33 9 -13 11 -13 20 0 17 25 12 50 -10
50 -12 0 -20 -7 -20 -17z"/>
<path d="M990 8763 c-6 -27 -21 -86 -32 -133 -12 -47 -22 -106 -23 -132 0 -25
-6 -52 -12 -60 -6 -7 -13 -43 -16 -81 -2 -37 -10 -74 -17 -82 -10 -12 -10 -15
0 -15 9 0 10 -12 6 -45 -6 -38 -5 -44 8 -39 9 3 18 20 20 37 10 64 19 163 19
200 -1 20 3 37 7 37 8 0 17 45 26 135 3 28 8 57 11 65 3 8 5 25 4 38 -2 13 2
28 7 35 15 19 24 74 13 81 -5 3 -15 -15 -21 -41z"/>
<path d="M1106 8753 c-10 -10 -7 -123 3 -123 5 0 11 27 13 61 3 58 -2 76 -16
62z"/>
<path d="M10204 8730 c-17 -6 -20 -15 -16 -35 3 -17 9 -24 18 -21 8 3 14 -1
14 -8 0 -8 -4 -16 -9 -18 -12 -4 5 -48 19 -48 7 0 10 25 8 70 -2 38 -5 70 -8
69 -3 0 -15 -4 -26 -9z"/>
<path d="M10349 8658 c-7 -72 16 -178 38 -178 19 0 20 54 3 75 -8 9 -17 58
-19 103 -1 6 -5 12 -11 12 -5 0 -11 -6 -11 -12z"/>
<path d="M1226 8625 c-3 -8 -1 -15 4 -15 6 0 10 7 10 15 0 8 -2 15 -4 15 -2 0
-6 -7 -10 -15z"/>
<path d="M1079 8610 c-1 -8 -1 -19 0 -24 1 -4 -5 -19 -14 -32 -11 -17 -12 -30
-5 -49 5 -14 9 -29 9 -33 -4 -22 2 -35 11 -26 10 10 22 85 22 133 0 26 -21 55
-23 31z"/>
<path d="M10231 8554 c-1 -17 2 -34 7 -38 4 -4 7 -13 7 -18 0 -26 23 -16 29
13 7 35 1 49 -19 49 -7 0 -16 6 -18 13 -3 6 -6 -2 -6 -19z"/>
<path d="M10298 8573 c7 -3 16 -2 19 1 4 3 -2 6 -13 5 -11 0 -14 -3 -6 -6z"/>
<path d="M1205 8547 c-4 -10 -5 -21 -1 -24 10 -10 18 4 13 24 -4 17 -4 17 -12
0z"/>
<path d="M1200 8453 c0 -18 2 -33 4 -33 9 0 13 39 5 51 -6 10 -9 4 -9 -18z"/>
<path d="M10270 8450 c-12 -23 -3 -110 11 -110 10 0 11 9 14 78 2 49 -9 62
-25 32z"/>
<path d="M10320 8449 c0 -5 5 -7 10 -4 6 3 10 8 10 11 0 2 -4 4 -10 4 -5 0
-10 -5 -10 -11z"/>
<path d="M10395 8386 c0 -25 3 -42 7 -40 4 3 5 -1 2 -9 -3 -8 -1 -18 5 -22 15
-9 14 -55 -1 -55 -8 -1 -6 -6 5 -14 10 -8 20 -29 22 -49 3 -19 9 -47 15 -63 8
-20 8 -30 1 -32 -6 -2 -11 -25 -11 -51 0 -39 3 -48 17 -48 10 0 24 6 31 14 8
8 9 13 3 13 -6 0 -11 11 -11 25 0 14 5 25 10 25 15 0 12 22 -10 65 -12 23 -16
41 -10 43 16 6 12 22 -11 41 -17 14 -19 20 -10 44 9 24 8 34 -9 56 -11 16 -17
31 -13 34 7 7 -16 67 -26 67 -3 0 -6 -20 -6 -44z"/>
<path d="M1040 8361 c0 -28 5 -51 10 -51 6 0 10 3 11 8 0 4 2 22 3 39 2 19 -2
37 -10 44 -12 9 -14 3 -14 -40z"/>
<path d="M1120 8385 c0 -8 4 -15 10 -15 5 0 7 7 4 15 -4 8 -8 15 -10 15 -2 0
-4 -7 -4 -15z"/>
<path d="M10297 8328 c-7 -56 0 -125 14 -133 4 -3 8 38 8 90 1 103 -12 128
-22 43z"/>
<path d="M10536 8361 c-13 -14 -16 -24 -9 -33 6 -7 13 -40 16 -73 3 -33 11
-61 17 -63 5 -2 8 -7 5 -12 -3 -5 -1 -19 4 -33 6 -16 6 -28 -2 -36 -8 -8 -8
-14 1 -23 7 -7 12 -26 12 -44 0 -17 5 -46 11 -64 18 -49 33 -13 18 42 -6 23
-11 64 -11 90 1 26 -3 50 -7 52 -4 3 -8 29 -10 58 -1 29 -6 57 -11 63 -5 6
-10 30 -12 54 -3 43 -3 43 -22 22z"/>
<path d="M951 8334 c0 -11 3 -14 6 -6 3 7 2 16 -1 19 -3 4 -6 -2 -5 -13z"/>
<path d="M1105 8301 c-3 -5 -1 -12 5 -16 5 -3 10 1 10 9 0 18 -6 21 -15 7z"/>
<path d="M1140 8255 c-6 -30 -9 -59 -5 -65 3 -5 1 -10 -6 -10 -8 0 -8 -4 1
-16 19 -22 22 -64 4 -64 -8 0 -14 -4 -14 -9 0 -14 28 -33 34 -23 5 8 17 133
18 187 2 74 -17 74 -32 0z"/>
<path d="M10324 8152 c-5 -4 -8 -37 -6 -75 3 -54 7 -69 23 -78 14 -7 17 -15
11 -27 -9 -17 -8 -69 3 -197 8 -106 14 -133 30 -139 12 -4 14 13 13 99 -1 79
-5 105 -15 105 -7 0 -13 5 -13 10 0 6 7 10 15 10 22 0 18 43 -5 58 -17 10 -19
16 -9 33 8 15 8 24 0 32 -6 6 -11 35 -11 64 0 47 2 53 21 53 12 0 17 4 14 11
-4 6 -13 8 -21 5 -8 -3 -11 0 -8 9 6 15 -27 37 -42 27z"/>
<path d="M1011 8124 c0 -11 3 -14 6 -6 3 7 2 16 -1 19 -3 4 -6 -2 -5 -13z"/>
<path d="M876 8081 c-8 -15 -15 -37 -15 -47 1 -47 -12 -148 -20 -158 -5 -6
-10 -69 -12 -141 -4 -223 -5 -249 -13 -272 -4 -12 -2 -24 4 -28 10 -6 6 -106
-6 -148 -3 -10 -7 -38 -9 -63 -2 -35 1 -44 14 -44 13 0 16 15 19 93 1 50 5
112 7 137 2 25 6 99 10 165 3 66 10 136 15 155 12 45 12 111 0 130 -5 9 -5 17
1 21 5 3 12 35 14 70 3 35 7 85 9 112 3 26 3 47 1 47 -2 0 -11 -13 -19 -29z"/>
<path d="M1122 7960 c1 -16 6 -30 10 -30 4 0 8 14 8 30 0 17 -5 30 -10 30 -6
0 -9 -13 -8 -30z"/>
<path d="M10407 7984 c-8 -8 1 -24 14 -24 5 0 9 7 9 15 0 15 -12 20 -23 9z"/>
<path d="M10502 7974 c4 -21 22 -23 26 -1 2 10 -3 17 -13 17 -10 0 -15 -6 -13
-16z"/>
<path d="M10458 7943 c7 -3 16 -2 19 1 4 3 -2 6 -13 5 -11 0 -14 -3 -6 -6z"/>
<path d="M10496 7931 c-3 -4 -7 -60 -10 -124 -4 -87 -2 -118 8 -126 9 -8 13
-45 14 -121 0 -93 4 -117 21 -145 11 -19 16 -35 11 -35 -6 0 -10 -18 -10 -40
0 -22 5 -40 11 -40 6 0 3 -7 -5 -16 -24 -23 -18 -56 12 -61 14 -3 15 3 12 117
-1 64 -6 87 -17 94 -12 6 -15 31 -14 135 2 170 3 212 4 236 3 78 -4 135 -17
135 -8 0 -17 -4 -20 -9z"/>
<path d="M986 7913 c-8 -21 10 -41 24 -27 11 11 3 44 -10 44 -4 0 -11 -8 -14
-17z"/>
<path d="M10601 7914 c0 -11 3 -14 6 -6 3 7 2 16 -1 19 -3 4 -6 -2 -5 -13z"/>
<path d="M1094 7905 c-7 -17 4 -37 17 -30 12 8 12 45 -1 45 -6 0 -13 -7 -16
-15z"/>
<path d="M10612 7825 c2 -44 8 -70 16 -73 19 -6 16 112 -3 128 -14 12 -16 6
-13 -55z"/>
<path d="M1092 7773 c2 -58 7 -88 16 -91 9 -3 12 19 12 87 0 75 -3 91 -15 91
-13 0 -15 -14 -13 -87z"/>
<path d="M956 7823 c-2 -10 -4 -61 -4 -114 1 -53 -2 -100 -5 -105 -8 -14 -6
-95 4 -119 6 -16 8 -11 9 20 1 22 1 50 1 62 -1 12 6 26 16 31 16 9 18 25 18
124 0 97 -2 113 -17 116 -9 2 -19 -5 -22 -15z"/>
<path d="M10627 7723 c-10 -16 -7 -272 4 -278 4 -3 9 -25 9 -48 1 -23 2 -55 3
-72 0 -16 -1 -66 -3 -110 -3 -76 -2 -80 18 -83 22 -3 22 -1 22 128 0 96 -3
132 -13 135 -9 4 -11 33 -9 115 3 73 1 110 -6 110 -6 0 -12 26 -14 58 -2 31
-6 52 -11 45z"/>
<path d="M1025 7570 c3 -5 8 -10 11 -10 2 0 4 5 4 10 0 6 -5 10 -11 10 -5 0
-7 -4 -4 -10z"/>
<path d="M1067 7566 c-3 -8 -3 -24 0 -35 4 -15 1 -21 -11 -21 -9 0 -16 -7 -16
-15 0 -8 6 -12 14 -9 15 6 26 -24 26 -74 0 -26 -5 -35 -20 -39 -15 -4 -20 -14
-20 -37 1 -29 1 -30 15 -12 14 19 15 18 24 -5 10 -24 10 -23 11 6 5 95 6 232
2 243 -6 16 -19 15 -25 -2z"/>
<path d="M10380 7556 c0 -14 4 -27 9 -31 5 -3 10 -54 10 -113 0 -59 0 -113 0
-119 1 -7 7 -13 15 -13 11 0 15 24 18 113 3 97 1 115 -14 133 -10 11 -18 25
-18 32 0 6 -4 14 -10 17 -6 3 -10 -5 -10 -19z"/>
<path d="M1043 7420 c0 -25 2 -35 4 -22 2 12 2 32 0 45 -2 12 -4 2 -4 -23z"/>
<path d="M961 7334 c0 -11 3 -14 6 -6 3 7 2 16 -1 19 -3 4 -6 -2 -5 -13z"/>
<path d="M1058 7243 c-27 -7 -22 -23 7 -23 16 0 25 6 25 15 0 15 -2 16 -32 8z"/>
<path d="M10460 7240 c-17 -11 -13 -15 20 -24 14 -4 20 -4 14 1 -6 4 -13 13
-15 20 -3 8 -9 9 -19 3z"/>
<path d="M10408 7213 c7 -3 16 -2 19 1 4 3 -2 6 -13 5 -11 0 -14 -3 -6 -6z"/>
<path d="M10530 7195 c0 -8 9 -15 20 -15 13 0 18 5 14 15 -4 8 -12 15 -20 15
-8 0 -14 -7 -14 -15z"/>
</g>
</svg>
